<?xml version="1.0" encoding="UTF-8" standalone="no"?>
<svg
   version="1.1"
   width="234.05823"
   height="234.1226"
   style="clip-rule:evenodd;fill-rule:evenodd;image-rendering:optimizeQuality;shape-rendering:geometricPrecision;text-rendering:geometricPrecision"
   id="svg127"
   sodipodi:docname="Screenshot 2024-04-21 000609.svg"
   xmlns:inkscape="http://www.inkscape.org/namespaces/inkscape"
   xmlns:sodipodi="http://sodipodi.sourceforge.net/DTD/sodipodi-0.dtd"
   xmlns="http://www.w3.org/2000/svg"
   xmlns:svg="http://www.w3.org/2000/svg">
  <defs
     id="defs127" />
  <sodipodi:namedview
     id="namedview127"
     pagecolor="#6b6b6b"
     bordercolor="#000000"
     borderopacity="0.25"
     inkscape:showpageshadow="2"
     inkscape:pageopacity="0.0"
     inkscape:pagecheckerboard="0"
     inkscape:deskcolor="#d1d1d1" />
  <g
     id="g2"
     transform="translate(-3.557575,-6.3868187)">
    <path
       style="opacity:1"
       fill="#6aadd4"
       d="m 114.5,6.5 c 10.791,-0.40149 21.457,0.26518 32,2 0,0.66667 0,1.33333 0,2 -7.575,-1.56507 -15.241,-2.23174 -23,-2 -3.329,0.28472 -6.329,-0.38195 -9,-2 z"
       id="path2" />
  </g>
  <g
     id="g3"
     transform="translate(-3.557575,-6.3868187)">
    <path
       style="opacity:1"
       fill="#1473b9"
       d="m 105.5,7.5 c 2.716,0.1785 5.383,0.6785 8,1.5 -4.709,1.1734 -9.042,3.0067 -13,5.5 -1.987,0.6642 -3.6537,1.8308 -5,3.5 -6.3666,0.5139 -12.7,0.8473 -19,1 6.3177,-4.3239 12.9844,-7.8239 20,-10.5 2.9552,-0.65872 5.955,-0.99205 9,-1 z"
       id="path3" />
  </g>
  <g
     id="g4"
     transform="translate(-3.557575,-6.3868187)">
    <path
       style="opacity:1"
       fill="#84bddf"
       d="m 152.5,10.5 c 5.989,0.941 11.655,2.7743 17,5.5 4.06,1.6891 7.727,3.8558 11,6.5 -1.86,-0.5715 -3.527,-0.5715 -5,0 0.131,-0.8764 -0.202,-1.5431 -1,-2 -6.935,-3.8029 -14.269,-6.4695 -22,-8 0,-0.6667 0,-1.3333 0,-2 z"
       id="path4" />
  </g>
  <g
     id="g5"
     transform="translate(-3.557575,-6.3868187)">
    <path
       style="opacity:1"
       fill="#1173ba"
       d="m 123.5,20.5 c -0.916,0.4817 -1.916,0.815 -3,1 -6.609,-1.4904 -13.276,-2.657 -20,-3.5 0.873,-1.045 1.873,-1.8783 3,-2.5 4.629,-2.7688 9.629,-4.7688 15,-6 4.674,1.7739 9.007,4.1073 13,7 -2.848,1.159 -5.515,2.4924 -8,4 z"
       id="path5" />
  </g>
  <g
     id="g6"
     transform="translate(-3.557575,-6.3868187)">
    <path
       style="opacity:1"
       fill="#1876b9"
       d="m 152.5,12.5 c 7.731,1.5305 15.065,4.1971 22,8 0.798,0.4569 1.131,1.1236 1,2 -3.317,0.7209 -6.651,0.8876 -10,0.5 -3.653,-2.3849 -7.653,-3.8849 -12,-4.5 0.175,-2.1208 -0.159,-4.1208 -1,-6 z"
       id="path6" />
  </g>
  <g
     id="g7"
     transform="translate(-3.557575,-6.3868187)">
    <path
       style="opacity:1"
       fill="#337bb6"
       d="m 80.5,13.5 c -4.7803,5.3932 -10.7803,8.7265 -18,10 -0.6667,0 -1,-0.3333 -1,-1 5.9007,-3.7824 12.234,-6.7824 19,-9 z"
       id="path7" />
  </g>
  <g
     id="g8"
     transform="translate(-3.557575,-6.3868187)">
    <path
       style="opacity:1"
       fill="#1a76ba"
       d="m 151.5,23.5 c 0.165,3.0184 -0.002,6.0184 -0.5,9 -1.666,-2.8312 -3.832,-5.1645 -6.5,-7 -1.794,-2.2966 -3.794,-4.4633 -6,-6.5 3.667,-0.6667 7.333,-0.6667 11,0 1.607,1.049 2.273,2.549 2,4.5 z"
       id="path8" />
  </g>
  <g
     id="g9"
     transform="translate(-3.557575,-6.3868187)">
    <path
       style="opacity:1"
       fill="#559bbe"
       d="m 61.5,22.5 c 0,0.6667 0.3333,1 1,1 -1.3484,1.1006 -2.8484,2.1006 -4.5,3 -0.4643,-0.5944 -0.631,-1.2611 -0.5,-2 1.1049,-1.1005 2.4382,-1.7671 4,-2 z"
       id="path9" />
  </g>
  <g
     id="g10"
     transform="translate(-3.557575,-6.3868187)">
    <path
       style="opacity:1"
       fill="#1073b6"
       d="m 143.5,25.5 c 1.644,1.9807 3.31,3.9807 5,6 -0.733,0.587 -1.733,0.587 -3,0 -1.926,-1.7927 -4.259,-2.7927 -7,-3 -3.703,-2.0056 -7.369,-4.0056 -11,-6 2.975,-2.3239 6.308,-3.1573 10,-2.5 1.87,2.0396 3.87,3.8729 6,5.5 z"
       id="path10" />
  </g>
  <g
     id="g11"
     transform="translate(-3.557575,-6.3868187)">
    <path
       style="opacity:1"
       fill="#9fddf6"
       d="m 105.5,7.5 c 2.787,-0.97667 5.787,-1.31 9,-1 2.671,1.61805 5.671,2.28472 9,2 3.601,2.4772 7.267,4.9772 11,7.5 5.364,0.8295 10.698,0.6628 16,-0.5 -0.598,-1.2946 -1.098,-2.6279 -1.5,-4 -0.671,-0.7524 -1.504,-1.0858 -2.5,-1 0,-0.66667 0,-1.33333 0,-2 2.286,0.09495 4.286,0.76162 6,2 0,0.6667 0,1.3333 0,2 0.841,1.8792 1.175,3.8792 1,6 4.347,0.6151 8.347,2.1151 12,4.5 3.349,0.3876 6.683,0.2209 10,-0.5 1.473,-0.5715 3.14,-0.5715 5,0 2.647,0.4287 4.647,1.7621 6,4 7.907,7.0818 14.574,15.2485 20,24.5 3.741,1.7379 6.908,4.2379 9.5,7.5 -0.134,-1.6893 -0.634,-3.356 -1.5,-5 5.524,5.7078 9.524,12.3745 12,20 -0.815,-0.9293 -1.648,-1.9293 -2.5,-3 -0.399,0.2284 -0.565,0.5618 -0.5,1 -0.722,-0.4175 -1.222,-1.0842 -1.5,-2 -0.399,0.2284 -0.565,0.5618 -0.5,1 -3.095,-7.1107 -8.095,-12.7773 -15,-17 -0.958,-0.4528 -1.792,-1.1195 -2.5,-2 -0.399,0.2284 -0.565,0.5618 -0.5,1 -5.403,-4.8226 -11.736,-8.1559 -19,-10 -0.438,0.0654 -0.772,-0.1012 -1,-0.5 0.916,-0.2784 1.582,-0.7784 2,-1.5 4.817,1.3264 9.317,3.3264 13.5,6 0.5,-0.3333 1,-0.6667 1.5,-1 -5.103,-7.9378 -11.436,-14.7711 -19,-20.5 -3.382,-0.8236 -6.716,-0.657 -10,0.5 4.78,3.4424 8.447,7.7757 11,13 -0.891,0.6098 -1.891,0.9431 -3,1 -0.667,0 -1.333,0 -2,0 1.125,-1.1522 1.125,-2.1522 0,-3 -3.493,-7.2682 -8.826,-9.6015 -16,-7 -0.667,0 -1,-0.3333 -1,-1 3.019,-0.4723 4.019,-1.9723 3,-4.5 -3,-1.1667 -6,-2.3333 -9,-3.5 -0.798,0.4569 -1.131,1.1236 -1,2 -0.667,0.3333 -1.333,0.6667 -2,1 0.273,-1.951 -0.393,-3.451 -2,-4.5 -3.667,-0.6667 -7.333,-0.6667 -11,0 2.206,2.0367 4.206,4.2034 6,6.5 -0.333,0 -0.667,0 -1,0 -2.13,-1.6271 -4.13,-3.4604 -6,-5.5 -3.692,-0.6573 -7.025,0.1761 -10,2.5 -1.014,-1.1737 -2.347,-1.8404 -4,-2 2.485,-1.5076 5.152,-2.841 8,-4 -3.993,-2.8927 -8.326,-5.2261 -13,-7 -5.371,1.2312 -10.371,3.2312 -15,6 -0.709,-0.904 -1.709,-1.2373 -3,-1 3.958,-2.4933 8.291,-4.3266 13,-5.5 -2.617,-0.8215 -5.284,-1.3215 -8,-1.5 z"
       id="path11" />
  </g>
  <g
     id="g12"
     transform="translate(-3.557575,-6.3868187)">
    <path
       style="opacity:1"
       fill="#237ab9"
       d="m 123.5,8.5 c 7.759,-0.23174 15.425,0.43493 23,2 0.996,-0.0858 1.829,0.2476 2.5,1 0.402,1.3721 0.902,2.7054 1.5,4 -5.302,1.1628 -10.636,1.3295 -16,0.5 -3.733,-2.5228 -7.399,-5.0228 -11,-7.5 z"
       id="path12" />
  </g>
  <g
     id="g13"
     transform="translate(-3.557575,-6.3868187)">
    <path
       style="opacity:1"
       fill="#0170c1"
       d="m 143.5,11.5 c 3.45,-0.7436 5.116,0.5897 5,4 -4.392,-0.2574 -8.725,-0.9241 -13,-2 2.806,-0.6676 5.472,-1.3343 8,-2 z"
       id="path13" />
  </g>
  <g
     id="g14"
     transform="translate(-3.557575,-6.3868187)">
    <path
       style="opacity:1"
       fill="#6ac2f2"
       d="m 127.5,22.5 c 3.631,1.9944 7.297,3.9944 11,6 -4.286,-1.2066 -8.62,-2.2066 -13,-3 0.432,-1.2095 1.099,-2.2095 2,-3 z"
       id="path14" />
  </g>
  <g
     id="g15"
     transform="translate(-3.557575,-6.3868187)">
    <path
       style="opacity:1"
       fill="#1173b4"
       d="m 160.5,28.5 c -1.971,1.3231 -3.971,2.6565 -6,4 -0.987,-3.2683 -1.32,-6.6016 -1,-10 -0.131,-0.8764 0.202,-1.5431 1,-2 3,1.1667 6,2.3333 9,3.5 1.019,2.5277 0.019,4.0277 -3,4.5 z"
       id="path15" />
  </g>
  <g
     id="g16"
     transform="translate(-3.557575,-6.3868187)">
    <path
       style="opacity:1"
       fill="#54b1ea"
       d="m 138.5,28.5 c 2.741,0.2073 5.074,1.2073 7,3 -2.741,-0.2073 -5.074,-1.2073 -7,-3 z"
       id="path16" />
  </g>
  <g
     id="g17"
     transform="translate(-3.557575,-6.3868187)">
    <path
       style="opacity:1"
       fill="#1374b4"
       d="m 125.5,25.5 c 4.38,0.7934 8.714,1.7934 13,3 1.926,1.7927 4.259,2.7927 7,3 0.111,0.6174 0.444,1.1174 1,1.5 -5.657,0.0951 -11.324,-0.0716 -17,-0.5 -2.333,0 -4.667,0 -7,0 -0.334,-2.991 0.666,-5.3243 3,-7 z"
       id="path17" />
  </g>
  <g
     id="g18"
     transform="translate(-3.557575,-6.3868187)">
    <path
       style="opacity:1"
       fill="#4ba6e0"
       d="m 153.5,22.5 c -0.32,3.3984 0.013,6.7317 1,10 2.029,-1.3435 4.029,-2.6769 6,-4 0,0.6667 0.333,1 1,1 -2.111,1.2359 -4.111,2.7359 -6,4.5 7.438,1.8624 14.771,2.6957 22,2.5 1.125,0.8478 1.125,1.8478 0,3 -5.93,-1.5378 -11.93,-2.3711 -18,-2.5 1.593,0.9487 2.926,2.1154 4,3.5 -1.994,-0.8497 -3.994,-1.3497 -6,-1.5 1.939,1.4321 3.272,3.2654 4,5.5 0,0.3333 0,0.6667 0,1 -2.267,-2.7709 -4.767,-5.4375 -7.5,-8 -0.384,1.6966 -0.218,3.3632 0.5,5 -0.333,0 -0.667,0 -1,0 -0.277,-2.2281 -1.277,-3.8947 -3,-5 -0.418,-0.7216 -1.084,-1.2216 -2,-1.5 0.333,-0.3333 0.667,-0.6667 1,-1 -8.327,-0.4997 -16.66,-0.6664 -25,-0.5 0,1 0,2 0,3 -0.333,0 -0.667,0 -1,0 0,-1.3333 0,-2.6667 0,-4 2.235,0.2947 4.235,-0.0386 6,-1 5.676,0.4284 11.343,0.5951 17,0.5 -0.556,-0.3826 -0.889,-0.8826 -1,-1.5 1.267,0.587 2.267,0.587 3,0 -1.69,-2.0193 -3.356,-4.0193 -5,-6 0.333,0 0.667,0 1,0 2.668,1.8355 4.834,4.1688 6.5,7 0.498,-2.9816 0.665,-5.9816 0.5,-9 0.667,-0.3333 1.333,-0.6667 2,-1 z"
       id="path18" />
  </g>
  <g
     id="g19"
     transform="translate(-3.557575,-6.3868187)">
    <path
       style="opacity:1"
       fill="#0f72b7"
       d="m 177.5,36.5 c -7.229,0.1957 -14.562,-0.6376 -22,-2.5 1.889,-1.7641 3.889,-3.2641 6,-4.5 7.174,-2.6015 12.507,-0.2682 16,7 z"
       id="path19" />
  </g>
  <g
     id="g20"
     transform="translate(-3.557575,-6.3868187)">
    <path
       style="opacity:1"
       fill="#2779b5"
       d="m 186.5,26.5 c 11.267,6.9329 20.601,15.9329 28,27 0.866,1.644 1.366,3.3107 1.5,5 -2.592,-3.2621 -5.759,-5.7621 -9.5,-7.5 -5.426,-9.2515 -12.093,-17.4182 -20,-24.5 z"
       id="path20" />
  </g>
  <g
     id="g21"
     transform="translate(-3.557575,-6.3868187)">
    <path
       style="opacity:1"
       fill="#1574b8"
       d="m 185.5,40.5 c -1.527,0.073 -2.527,-0.5937 -3,-2 -2.553,-5.2243 -6.22,-9.5576 -11,-13 3.284,-1.157 6.618,-1.3236 10,-0.5 7.564,5.7289 13.897,12.5622 19,20.5 -0.5,0.3333 -1,0.6667 -1.5,1 -4.183,-2.6736 -8.683,-4.6736 -13.5,-6 z"
       id="path21" />
  </g>
  <g
     id="g22"
     transform="translate(-3.557575,-6.3868187)">
    <path
       style="opacity:1"
       fill="#1977b9"
       d="m 150.5,37.5 c -3.303,4.1512 -6.47,8.4845 -9.5,13 -0.671,0.7524 -1.504,1.0858 -2.5,1 -3.863,-1.1936 -6.863,-3.527 -9,-7 3.525,-2.1193 7.192,-3.9527 11,-5.5 -4.231,0.6019 -8.397,1.7685 -12.5,3.5 -2.138,-0.9304 -3.305,-2.597 -3.5,-5 0,-1 0,-2 0,-3 8.34,-0.1664 16.673,3e-4 25,0.5 -0.333,0.3333 -0.667,0.6667 -1,1 0.916,0.2784 1.582,0.7784 2,1.5 z"
       id="path22" />
  </g>
  <g
     id="g23"
     transform="translate(-3.557575,-6.3868187)">
    <path
       style="opacity:1"
       fill="#0e70b4"
       d="m 177.5,39.5 c 0.667,0 1.333,0 2,0 0,2.6667 0,5.3333 0,8 -5.333,-2.3333 -10.667,-4.6667 -16,-7 -1.074,-1.3846 -2.407,-2.5513 -4,-3.5 6.07,0.1289 12.07,0.9622 18,2.5 z"
       id="path23" />
  </g>
  <g
     id="g24"
     transform="translate(-3.557575,-6.3868187)">
    <path
       style="opacity:1"
       fill="#63beee"
       d="m 163.5,40.5 c 5.333,2.3333 10.667,4.6667 16,7 -0.342,0.8382 -1.008,1.1716 -2,1 -5,-2.1643 -9.667,-4.831 -14,-8 z"
       id="path24" />
  </g>
  <g
     id="g25"
     transform="translate(-3.557575,-6.3868187)">
    <path
       style="opacity:1"
       fill="#267ab8"
       d="m 31.5,65.5 c -0.6667,-4 1,-5.6667 5,-5 0.165,-3.3499 -0.0017,-6.6832 -0.5,-10 -1.3297,-1.0822 -2.8297,-1.7488 -4.5,-2 2.9578,-4.6256 6.6245,-8.6256 11,-12 0.9232,-0.8029 1.9232,-0.9696 3,-0.5 -5.6674,7.4822 -8.5008,15.9822 -8.5,25.5 -1.451,1.9641 -3.2843,3.2974 -5.5,4 z"
       id="path25" />
  </g>
  <g
     id="g26"
     transform="translate(-3.557575,-6.3868187)">
    <path
       style="opacity:1"
       fill="#85d2f8"
       d="m 150.5,37.5 c -3.118,5.1149 -5.784,10.4483 -8,16 -1.495,-0.4887 -2.829,-1.1554 -4,-2 0.996,0.0858 1.829,-0.2476 2.5,-1 3.03,-4.5155 6.197,-8.8488 9.5,-13 z"
       id="path26" />
  </g>
  <g
     id="g27"
     transform="translate(-3.557575,-6.3868187)">
    <path
       style="opacity:1"
       fill="#0e73b9"
       d="m 161.5,45.5 c 2.755,3.4166 5.088,7.0833 7,11 -3.934,0.8597 -7.934,1.193 -12,1 0,-1 0,-2 0,-3 -0.03,-4.1179 -0.697,-8.1179 -2,-12 -0.718,-1.6368 -0.884,-3.3034 -0.5,-5 2.733,2.5625 5.233,5.2291 7.5,8 z"
       id="path27" />
  </g>
  <g
     id="g28"
     transform="translate(-3.557575,-6.3868187)">
    <path
       style="opacity:1"
       fill="#1273ba"
       d="m 150.5,37.5 c 1.723,1.1053 2.723,2.7719 3,5 0.627,4.6408 0.96,9.3075 1,14 -1.333,0 -2.667,0 -4,0 -3.004,-0.222 -5.671,-1.222 -8,-3 2.216,-5.5517 4.882,-10.8851 8,-16 z"
       id="path28" />
  </g>
  <g
     id="g29"
     transform="translate(-3.557575,-6.3868187)">
    <path
       style="opacity:1"
       fill="#1073ba"
       d="m 163.5,40.5 c 4.333,3.169 9,5.8357 14,8 -0.505,3.512 -2.505,5.8454 -6,7 -3.117,-3.9291 -6.45,-7.5958 -10,-11 -0.728,-2.2346 -2.061,-4.0679 -4,-5.5 2.006,0.1503 4.006,0.6503 6,1.5 z"
       id="path29" />
  </g>
  <g
     id="g30"
     transform="translate(-3.557575,-6.3868187)">
    <path
       style="opacity:1"
       fill="#1072b9"
       d="m 184.5,42.5 c 7.264,1.8441 13.597,5.1774 19,10 0.165,3.6817 -0.001,7.3484 -0.5,11 -0.249,1.124 -0.749,2.124 -1.5,3 -5.035,-5.2001 -10.535,-9.8667 -16.5,-14 -0.498,-3.3168 -0.665,-6.6501 -0.5,-10 z"
       id="path30" />
  </g>
  <g
     id="g31"
     transform="translate(-3.557575,-6.3868187)">
    <path
       style="opacity:1"
       fill="#80ccf6"
       d="m 153.5,42.5 c 0.333,0 0.667,0 1,0 1.303,3.8821 1.97,7.8821 2,12 -0.904,0.709 -1.237,1.709 -1,3 -1.915,0.2845 -3.581,-0.0489 -5,-1 1.333,0 2.667,0 4,0 -0.04,-4.6925 -0.373,-9.3592 -1,-14 z"
       id="path31" />
  </g>
  <g
     id="g32"
     transform="translate(-3.557575,-6.3868187)">
    <path
       style="opacity:1"
       fill="#0972bb"
       d="m 62.5,55.5 c 2.5697,7.734 6.2364,14.9007 11,21.5 -4.8664,6.544 -10.5331,11.8773 -17,16 -5.76,-6.688 -10.0933,-14.188 -13,-22.5 -1.9931,-4.687 -0.9931,-8.5203 3,-11.5 3.9343,-2.884 8.101,-5.384 12.5,-7.5 1.7706,0.8471 2.9373,2.1805 3.5,4 z"
       id="path32" />
  </g>
  <g
     id="g33"
     transform="translate(-3.557575,-6.3868187)">
    <path
       style="opacity:1"
       fill="#a7e4fa"
       d="m 182.5,38.5 c 0.473,1.4063 1.473,2.073 3,2 -0.418,0.7216 -1.084,1.2216 -2,1.5 0.228,0.3988 0.562,0.5654 1,0.5 -0.165,3.3499 0.002,6.6832 0.5,10 5.965,4.1333 11.465,8.7999 16.5,14 0.751,-0.876 1.251,-1.876 1.5,-3 0.499,-3.6516 0.665,-7.3183 0.5,-11 -0.065,-0.4382 0.101,-0.7716 0.5,-1 0.708,0.8805 1.542,1.5472 2.5,2 1.652,5.8167 1.319,11.4834 -1,17 4.69,5.5227 9.19,11.1894 13.5,17 0.333,-0.3333 0.667,-0.6667 1,-1 1.271,-5.2539 1.771,-10.5873 1.5,-16 -0.065,-0.4382 0.101,-0.7716 0.5,-1 0.278,0.9158 0.778,1.5825 1.5,2 1.072,7.7013 0.739,15.368 -1,23 -0.961,-1.7646 -1.295,-3.7646 -1,-6 -1.983,-0.3432 -3.317,0.3235 -4,2 -3.552,-5.894 -7.886,-11.2273 -13,-16 -3.379,3.0507 -6.712,6.0507 -10,9 -0.667,0 -1.333,0 -2,0 0.032,-2.1188 -0.968,-3.4522 -3,-4 4.245,-2.5722 7.911,-5.9055 11,-10 -5.082,-6.4186 -11.082,-11.7519 -18,-16 -1.024,1.3518 -2.024,2.6851 -3,4 -2.145,0.2377 -3.812,1.2377 -5,3 2.391,3.3746 4.724,6.7079 7,10 1.68,3.3599 3.347,6.6932 5,10 -0.617,-0.1107 -1.117,-0.444 -1.5,-1 -0.187,1.8448 -1.02,3.5115 -2.5,5 -1.571,-0.8094 -3.238,-1.1427 -5,-1 1.109,-0.79 2.442,-1.29 4,-1.5 0.522,-0.5613 0.855,-1.228 1,-2 -1.078,-3.5508 -2.744,-6.7175 -5,-9.5 -1.004,-3.5078 -2.671,-6.6745 -5,-9.5 -1.925,0.1349 -3.925,0.3016 -6,0.5 2.064,-1.3676 4.398,-2.3676 7,-3 -1.35,-1.4501 -3.016,-2.1168 -5,-2 -1.912,-3.9167 -4.245,-7.5834 -7,-11 0,-0.3333 0,-0.6667 0,-1 3.55,3.4042 6.883,7.0709 10,11 3.495,-1.1546 5.495,-3.488 6,-7 0.992,0.1716 1.658,-0.1618 2,-1 0,-2.6667 0,-5.3333 0,-8 1.109,-0.0569 2.109,-0.3902 3,-1 z"
       id="path33" />
  </g>
  <g
     id="g34"
     transform="translate(-3.557575,-6.3868187)">
    <path
       style="opacity:1"
       fill="#0e72b9"
       d="m 31.5,48.5 c 1.6703,0.2512 3.1703,0.9178 4.5,2 0.4983,3.3168 0.665,6.6501 0.5,10 -4,-0.6667 -5.6667,1 -5,5 -2.6979,3.4363 -5.5312,6.7697 -8.5,10 -0.7203,-7.7858 0.7797,-15.1191 4.5,-22 0.5798,-2.2488 1.9131,-3.9154 4,-5 z"
       id="path34" />
  </g>
  <g
     id="g35"
     transform="translate(-3.557575,-6.3868187)">
    <path
       style="opacity:1"
       fill="#2078b4"
       d="m 179.5,57.5 c 0.079,1.4305 -0.254,2.7638 -1,4 1.301,2.9271 2.301,5.9271 3,9 -2.276,-3.2921 -4.609,-6.6254 -7,-10 1.188,-1.7623 2.855,-2.7623 5,-3 z"
       id="path35" />
  </g>
  <g
     id="g36"
     transform="translate(-3.557575,-6.3868187)">
    <path
       style="opacity:1"
       fill="#0471bc"
       d="m 177.5,70.5 c 2.256,2.7825 3.922,5.9492 5,9.5 -0.145,0.772 -0.478,1.4387 -1,2 -1.558,0.21 -2.891,0.71 -4,1.5 -1,0 -2,0 -3,0 -5,0 -10,0 -15,0 -0.213,-6.7105 0.12,-13.3772 1,-20 3.725,-0.0949 7.391,-0.2616 11,-0.5 1.602,1.9347 2.769,4.1013 3.5,6.5 0.671,0.7524 1.504,1.0858 2.5,1 z"
       id="path36" />
  </g>
  <g
     id="g37"
     transform="translate(-3.557575,-6.3868187)">
    <path
       style="opacity:1"
       fill="#0f73b9"
       d="m 206.5,53.5 c 6.905,4.2227 11.905,9.8893 15,17 0.271,5.4127 -0.229,10.7461 -1.5,16 -0.333,0.3333 -0.667,0.6667 -1,1 -4.31,-5.8106 -8.81,-11.4773 -13.5,-17 2.319,-5.5166 2.652,-11.1833 1,-17 z"
       id="path37" />
  </g>
  <g
     id="g38"
     transform="translate(-3.557575,-6.3868187)">
    <path
       style="opacity:1"
       fill="#2c7eb6"
       d="m 177.5,70.5 c -0.996,0.0858 -1.829,-0.2476 -2.5,-1 -0.731,-2.3987 -1.898,-4.5653 -3.5,-6.5 -3.609,0.2384 -7.275,0.4051 -11,0.5 -0.88,6.6228 -1.213,13.2895 -1,20 5,0 10,0 15,0 -5.14,0.9881 -10.474,1.3214 -16,1 0.297,-7.0581 -0.036,-14.0581 -1,-21 3.142,-0.6674 6.142,-1.334 9,-2 2.075,-0.1984 4.075,-0.3651 6,-0.5 2.329,2.8255 3.996,5.9922 5,9.5 z"
       id="path38" />
  </g>
  <g
     id="g39"
     transform="translate(-3.557575,-6.3868187)">
    <path
       style="opacity:1"
       fill="#0971bc"
       d="m 189.5,79.5 c -0.891,0.6098 -1.891,0.9431 -3,1 -1.653,-3.3068 -3.32,-6.6401 -5,-10 -0.699,-3.0729 -1.699,-6.0729 -3,-9 0.746,-1.2362 1.079,-2.5695 1,-4 0.976,-1.3149 1.976,-2.6482 3,-4 6.918,4.2481 12.918,9.5814 18,16 -3.089,4.0945 -6.755,7.4278 -11,10 z"
       id="path39" />
  </g>
  <g
     id="g40"
     transform="translate(-3.557575,-6.3868187)">
    <path
       style="opacity:1"
       fill="#2276b8"
       d="m 21.5,62.5 c -1.2927,5.9214 -2.126,11.9214 -2.5,18 -3.5066,5.0095 -6.5066,10.3428 -9,16 -0.49665,-2.3098 -0.66331,-4.6432 -0.5,-7 2.1216,-9.9037 6.1216,-18.9037 12,-27 z"
       id="path40" />
  </g>
  <g
     id="g41"
     transform="translate(-3.557575,-6.3868187)">
    <path
       style="opacity:1"
       fill="#a8e3f9"
       d="m 96.5,8.5 c -7.0156,2.6761 -13.6823,6.1761 -20,10.5 6.3,-0.1527 12.6334,-0.4861 19,-1 1.3463,-1.6692 3.013,-2.8358 5,-3.5 1.291,-0.2373 2.291,0.096 3,1 -1.127,0.6217 -2.127,1.455 -3,2.5 6.724,0.843 13.391,2.0096 20,3.5 1.084,-0.185 2.084,-0.5183 3,-1 1.653,0.1596 2.986,0.8263 4,2 -0.901,0.7905 -1.568,1.7905 -2,3 -2.334,1.6757 -3.334,4.009 -3,7 2.333,0 4.667,0 7,0 -1.765,0.9614 -3.765,1.2947 -6,1 0,1.3333 0,2.6667 0,4 -0.804,-1.6887 -1.804,-3.3554 -3,-5 0.223,-1.4667 0.556,-2.9667 1,-4.5 -1.319,-0.195 -2.653,-0.0283 -4,0.5 1.499,-1.7578 1.832,-3.5912 1,-5.5 -7.12,-2.2549 -14.287,-2.7549 -21.5,-1.5 -2.2868,2.5722 -3.4535,5.5722 -3.5,9 -0.9511,1.4187 -1.2845,3.0853 -1,5 2.5593,-0.3016 4.8926,0.0318 7,1 -2.6048,0.1206 -4.6048,1.1206 -6,3 1.2694,4.5427 3.1028,8.876 5.5,13 1.995,3.3058 4.162,3.6391 6.5,1 5.775,-2.6067 11.442,-5.4401 17,-8.5 -0.556,-0.3826 -0.889,-0.8826 -1,-1.5 0.617,-0.1107 1.117,-0.444 1.5,-1 0.494,1.6341 0.66,3.3008 0.5,5 -5.447,2.9402 -10.78,6.1069 -16,9.5 -2.048,1.2259 -2.381,2.7259 -1,4.5 -1.373,-0.1567 -2.707,0.01 -4,0.5 1.098,0.7697 1.098,1.603 0,2.5 -0.765,-0.4234 -1.598,-0.7568 -2.5,-1 -2.4587,1.4784 -4.9587,2.8118 -7.5,4 -1.0676,-0.9345 -2.401,-1.2678 -4,-1 2.8352,-2.3357 5.5019,-4.8357 8,-7.5 -2.0471,-3.9304 -4.2137,-7.7637 -6.5,-11.5 -1.0793,-2.5627 -1.5793,-5.2294 -1.5,-8 -2.0529,-0.0979 -3.7196,0.5687 -5,2 -4.4086,1.0347 -8.7419,2.368 -13,4 0.6157,-1.2978 0.6157,-2.2978 0,-3 5.1588,-3.0495 10.8255,-4.7162 17,-5 0,-2 0,-4 0,-6 1.1284,-3.5901 2.795,-6.9234 5,-10 -6.8868,-1.5372 -13.5535,-0.8705 -20,2 -0.6925,1.0178 -1.3592,2.0178 -2,3 -3.0141,3.6927 -4.6808,8.026 -5,13 0.0854,1.8328 0.7521,3.1661 2,4 -0.709,0.904 -1.709,1.2373 -3,1 0.165,-3.3499 -0.0017,-6.6832 -0.5,-10 -1.5884,4.9026 -3.0884,9.736 -4.5,14.5 2.6109,1.701 3.6109,3.8676 3,6.5 -0.5627,-1.8195 -1.7294,-3.1529 -3.5,-4 -4.399,2.116 -8.5657,4.616 -12.5,7.5 -3.9931,2.9797 -4.9931,6.813 -3,11.5 -3.2585,-2.4475 -3.9252,-5.6142 -2,-9.5 -1.209,-2.3192 -2.0423,-4.8192 -2.5,-7.5 -0.499,4.3206 -0.6657,8.6539 -0.5,13 -5.2405,3.733 -10.0738,8.0663 -14.5,13 -0.5177,4.0511 -0.1843,8.0511 1,12 3.7501,8.508 8.2501,16.508 13.5,24 -1.6667,-1.333 -3.3333,-1.333 -5,0 -2.9921,-4.588 -5.9921,-9.254 -9,-14 -1.8603,-4.9141 -3.5269,-9.9141 -5,-15 -3.9073,4.802 -7.074,10.1354 -9.5,16 0.7535,4.626 1.7535,9.292 3,14 0.9344,1.358 1.7677,2.692 2.5,4 2.8914,7.447 7.0581,14.113 12.5,20 0.2784,-0.916 0.7784,-1.582 1.5,-2 -1.2468,4.215 -2.0802,8.548 -2.5,13 -0.3333,-0.333 -0.6667,-0.667 -1,-1 -0.2321,1.237 -0.7321,2.237 -1.5,3 -0.0379,-2.681 0.6287,-5.181 2,-7.5 -1.1737,-3.191 -3.1737,-5.691 -6,-7.5 0.073,-1.527 -0.5937,-2.527 -2,-3 -4.3418,-8.347 -7.8418,-17.014 -10.5,-26 -5.43542,18.588 -1.60208,34.921 11.5,49 0.1854,1.696 1.0187,3.029 2.5,4 0.9428,-2.751 1.7761,-5.417 2.5,-8 0.6149,4.491 -0.3851,8.491 -3,12 -6.6198,-8.24 -11.9531,-17.24 -16,-27 -2.5899,-10.797 -2.5899,-21.464 0,-32 -0.13101,0.739 0.03566,1.406 0.5,2 1.39318,-4.128 1.55985,-8.128 0.5,-12 0.62904,-2.8973 1.62904,-5.564 3,-8 -0.16331,2.3568 0.00335,4.6902 0.5,7 2.4934,-5.6572 5.4934,-10.9905 9,-16 0.374,-6.0786 1.2073,-12.0786 2.5,-18 0.7633,-3.8696 2.7633,-6.8696 6,-9 -3.7203,6.8809 -5.2203,14.2142 -4.5,22 2.9688,-3.2303 5.8021,-6.5637 8.5,-10 2.2157,-0.7026 4.049,-2.0359 5.5,-4 -8e-4,-9.5178 2.8326,-18.0178 8.5,-25.5 -1.0768,-0.4696 -2.0768,-0.3029 -3,0.5 -0.0858,-0.9959 0.2476,-1.8292 1,-2.5 4.5477,-3.3879 9.2144,-6.5546 14,-9.5 -0.131,0.7389 0.0357,1.4056 0.5,2 1.6516,-0.8994 3.1516,-1.8994 4.5,-3 7.2197,-1.2735 13.2197,-4.6068 18,-10 5.0657,-2.1814 10.399,-3.84806 16,-5 z"
       id="path41" />
  </g>
  <g
     id="g42"
     transform="translate(-3.557575,-6.3868187)">
    <path
       style="opacity:1"
       fill="#1774b6"
       d="m 55.5,29.5 c -2.5817,1.7551 -4.7483,4.0884 -6.5,7 -0.1048,3.8598 -0.9382,7.5265 -2.5,11 0.3076,0.8081 0.8076,1.4747 1.5,2 3.4527,-2.2503 7.286,-3.2503 11.5,-3 -5.8533,3.5168 -11.6866,7.1835 -17.5,11 -0.9644,-8.4771 1.0356,-16.1437 6,-23 1.8567,-2.6998 4.3567,-4.3665 7.5,-5 z"
       id="path42" />
  </g>
  <g
     id="g43"
     transform="translate(-3.557575,-6.3868187)">
    <path
       style="opacity:1"
       fill="#0871bb"
       d="m 59.5,46.5 c -4.214,-0.2503 -8.0473,0.7497 -11.5,3 -0.6924,-0.5253 -1.1924,-1.1919 -1.5,-2 1.5618,-3.4735 2.3952,-7.1402 2.5,-11 1.7517,-2.9116 3.9183,-5.2449 6.5,-7 3.6655,-2.7778 7.6655,-4.1111 12,-4 -5.0431,6.1338 -7.7098,13.1338 -8,21 z"
       id="path43" />
  </g>
  <g
     id="g44"
     transform="translate(-3.557575,-6.3868187)">
    <path
       style="opacity:1"
       fill="#93d2ef"
       d="m 93.5,30.5 c 0,1.3333 0,2.6667 0,4 7.647,-0.8317 15.314,-1.4984 23,-2 0.333,0.6667 0.667,1.3333 1,2 -6.1,-0.1234 -12.1,0.5432 -18,2 -2.1074,-0.9682 -4.4407,-1.3016 -7,-1 -0.2845,-1.9147 0.0489,-3.5813 1,-5 z"
       id="path44" />
  </g>
  <g
     id="g45"
     transform="translate(-3.557575,-6.3868187)">
    <path
       style="opacity:1"
       fill="#2378b4"
       d="m 70.5,26.5 c -0.17,1.3221 0.1634,2.4887 1,3.5 -0.9162,0.3742 -1.7496,0.8742 -2.5,1.5 -0.537,2.5934 -1.3704,5.0934 -2.5,7.5 0.3333,0.8333 0.6667,1.6667 1,2.5 5.6324,-2.8058 11.6324,-4.4725 18,-5 -0.0979,-2.0529 0.5687,-3.7196 2,-5 0,2 0,4 0,6 -6.1745,0.2838 -11.8412,1.9505 -17,5 -1.109,0.0569 -2.109,0.3902 -3,1 -1.2479,-0.8339 -1.9146,-2.1672 -2,-4 0.3192,-4.974 1.9859,-9.3073 5,-13 z"
       id="path45" />
  </g>
  <g
     id="g46"
     transform="translate(-3.557575,-6.3868187)">
    <path
       style="opacity:1"
       fill="#0d72bb"
       d="m 117.5,28.5 c 0.268,1.599 -0.066,2.9324 -1,4 -7.686,0.5016 -15.353,1.1683 -23,2 0,-1.3333 0,-2.6667 0,-4 0.0465,-3.4278 1.2132,-6.4278 3.5,-9 7.213,-1.2549 14.38,-0.7549 21.5,1.5 0.832,1.9088 0.499,3.7422 -1,5.5 z"
       id="path46" />
  </g>
  <g
     id="g47"
     transform="translate(-3.557575,-6.3868187)">
    <path
       style="opacity:1"
       fill="#0671bb"
       d="m 87.5,31.5 c -1.4313,1.2804 -2.0979,2.9471 -2,5 -6.3676,0.5275 -12.3676,2.1942 -18,5 -0.3333,-0.8333 -0.6667,-1.6667 -1,-2.5 1.1296,-2.4066 1.963,-4.9066 2.5,-7.5 0.7504,-0.6258 1.5838,-1.1258 2.5,-1.5 -0.8366,-1.0113 -1.17,-2.1779 -1,-3.5 0.6408,-0.9822 1.3075,-1.9822 2,-3 6.4465,-2.8705 13.1132,-3.5372 20,-2 -2.205,3.0766 -3.8716,6.4099 -5,10 z"
       id="path47" />
  </g>
  <g
     id="g48"
     transform="translate(-3.557575,-6.3868187)">
    <path
       style="opacity:1"
       fill="#1875b6"
       d="m 217.5,90.5 c -1.817,5.8234 -5.484,10.157 -11,13 0,-1.333 0,-2.667 0,-4 1.333,0 2.667,0 4,0 0,-1.3333 0,-2.6667 0,-4 2.318,-0.1571 3.984,-1.3238 5,-3.5 -0.113,-1.2798 -0.78,-2.1131 -2,-2.5 -0.781,1.2287 -1.281,2.562 -1.5,4 -0.179,-3.0535 -0.679,-6.0535 -1.5,-9 -0.667,-0.3333 -1.333,-0.6667 -2,-1 -0.58,2.1367 -1.58,3.97 -3,5.5 -3.382,0.8236 -6.716,0.657 -10,-0.5 3.617,-1.5455 7.283,-3.2122 11,-5 0.431,-0.7935 0.765,-1.6268 1,-2.5 -1,-1.5 -2,-3 -3,-4.5 -2.484,1.983 -4.817,4.1496 -7,6.5 -0.948,0.4828 -1.948,0.6495 -3,0.5 3.288,-2.9493 6.621,-5.9493 10,-9 5.114,4.7727 9.448,10.106 13,16 z"
       id="path48" />
  </g>
  <g
     id="g49"
     transform="translate(-3.557575,-6.3868187)">
    <path
       style="opacity:1"
       fill="#0872bc"
       d="m 206.5,103.5 c -2.112,0.94 -4.112,2.106 -6,3.5 -1.135,0.749 -2.135,0.583 -3,-0.5 -2.477,-6.7689 -5.144,-13.4356 -8,-20 0.84,-1.235 1.84,-2.235 3,-3 0.667,0 1.333,0 2,0 1.052,0.1495 2.052,-0.0172 3,-0.5 2.183,-2.3504 4.516,-4.517 7,-6.5 1,1.5 2,3 3,4.5 -0.235,0.8732 -0.569,1.7065 -1,2.5 -3.717,1.7878 -7.383,3.4545 -11,5 3.284,1.157 6.618,1.3236 10,0.5 1.42,-1.53 2.42,-3.3633 3,-5.5 0.667,0.3333 1.333,0.6667 2,1 0.821,2.9465 1.321,5.9465 1.5,9 0.219,-1.438 0.719,-2.7713 1.5,-4 1.22,0.3869 1.887,1.2202 2,2.5 -1.016,2.1762 -2.682,3.3429 -5,3.5 0,1.3333 0,2.6667 0,4 -1.333,0 -2.667,0 -4,0 0,1.333 0,2.667 0,4 z"
       id="path49" />
  </g>
  <g
     id="g50"
     transform="translate(-3.557575,-6.3868187)">
    <path
       style="opacity:1"
       fill="#0872bb"
       d="m 38.5,66.5 c 0.7292,6.3532 2.5626,12.3532 5.5,18 2.9192,4.8397 6.0859,9.5064 9.5,14 -4,5.667 -8,11.333 -12,17 -0.9246,1.062 -1.9246,1.062 -3,0 -5.2499,-7.492 -9.7499,-15.492 -13.5,-24 -1.1843,-3.9489 -1.5177,-7.9489 -1,-12 4.4262,-4.9337 9.2595,-9.267 14.5,-13 z"
       id="path50" />
  </g>
  <g
     id="g51"
     transform="translate(-3.557575,-6.3868187)">
    <path
       style="opacity:1"
       fill="#1373b9"
       d="m 226.5,73.5 c 2.57,3.5874 4.237,7.5874 5,12 0.831,6.6311 1.164,13.2978 1,20 0.117,1.984 -0.55,3.65 -2,5 -0.82,-1.819 -1.82,-3.486 -3,-5 -0.891,-4.109 -2.558,-7.7759 -5,-11 1.739,-7.632 2.072,-15.2987 1,-23 -0.065,-0.4382 0.101,-0.7716 0.5,-1 0.852,1.0707 1.685,2.0707 2.5,3 z"
       id="path51" />
  </g>
  <g
     id="g52"
     transform="translate(-3.557575,-6.3868187)">
    <path
       style="opacity:1"
       fill="#5da5d5"
       d="m 231.5,85.5 c 1.723,2.28 2.389,4.9467 2,8 0.317,4.2016 -0.017,8.202 -1,12 0.164,-6.7022 -0.169,-13.3689 -1,-20 z"
       id="path52" />
  </g>
  <g
     id="g53"
     transform="translate(-3.557575,-6.3868187)">
    <path
       style="opacity:1"
       fill="#4195b6"
       d="m 235.5,97.5 c 0.719,2.2638 1.052,4.597 1,7 -0.667,0 -1.333,0 -2,0 -0.302,-2.559 0.032,-4.8926 1,-7 z"
       id="path53" />
  </g>
  <g
     id="g54"
     transform="translate(-3.557575,-6.3868187)">
    <path
       style="opacity:1"
       fill="#1875b9"
       d="m 24.5,101.5 c -1.5481,0.321 -2.2148,1.321 -2,3 -1,0 -2,0 -3,0 -0.0603,-2.521 0.6064,-4.8543 2,-7 -0.3678,-1.41 -1.2011,-2.41 -2.5,-3 -0.7096,1.4733 -1.8762,2.1399 -3.5,2 0.2018,3.603 1.2018,6.936 3,10 -0.3333,0.667 -0.6667,1.333 -1,2 -0.6667,-1.333 -1.3333,-2.667 -2,-4 -0.3333,1 -0.6667,2 -1,3 0.7965,4.298 1.1299,8.632 1,13 -0.7323,-1.308 -1.5656,-2.642 -2.5,-4 -1.2465,-4.708 -2.2465,-9.374 -3,-14 2.426,-5.8646 5.5927,-11.198 9.5,-16 1.4731,5.0859 3.1397,10.0859 5,15 z"
       id="path54" />
  </g>
  <g
     id="g55"
     transform="translate(-3.557575,-6.3868187)">
    <path
       style="opacity:1"
       fill="#1b76b7"
       d="m 225.5,106.5 c 0.893,3.18 1.893,6.346 3,9.5 -0.139,1.301 -0.805,2.134 -2,2.5 -0.481,-3.022 -1.147,-6.022 -2,-9 -2.495,2.159 -4.161,4.826 -5,8 -1.103,-2.454 -0.77,-4.787 1,-7 -0.615,-1.616 -1.615,-2.949 -3,-4 -2.849,1.177 -5.182,3.01 -7,5.5 -2.333,0.333 -4.667,0.667 -7,1 -0.608,1.231 -0.941,2.564 -1,4 1.434,5.407 2.101,10.907 2,16.5 1.667,0 3.333,0 5,0 -1.437,1.225 -3.104,2.225 -5,3 -1.511,-7.743 -3.011,-15.41 -4.5,-23 8.213,-3.882 14.88,-9.549 20,-17 2.099,3.1999 3.933,6.533 5.5,10 z"
       id="path55" />
  </g>
  <g
     id="g56"
     transform="translate(-3.557575,-6.3868187)">
    <path
       style="opacity:1"
       fill="#4991c4"
       d="m 6.5,97.5 c 1.05985,3.872 0.89318,7.872 -0.5,12 -0.46434,-0.594 -0.63101,-1.261 -0.5,-2 -0.24707,-3.439 0.08627,-6.772 1,-10 z"
       id="path56" />
  </g>
  <g
     id="g57"
     transform="translate(-3.557575,-6.3868187)">
    <path
       style="opacity:1"
       fill="#0471bc"
       d="m 226.5,118.5 c -2.598,3.938 -5.598,7.605 -9,11 -2.667,1.333 -5.333,2.667 -8,4 -1.667,0 -3.333,0 -5,0 0.101,-5.593 -0.566,-11.093 -2,-16.5 0.059,-1.436 0.392,-2.769 1,-4 2.333,-0.333 4.667,-0.667 7,-1 1.818,-2.49 4.151,-4.323 7,-5.5 1.385,1.051 2.385,2.384 3,4 -1.77,2.213 -2.103,4.546 -1,7 0.839,-3.174 2.505,-5.841 5,-8 0.853,2.978 1.519,5.978 2,9 z"
       id="path57" />
  </g>
  <g
     id="g58"
     transform="translate(-3.557575,-6.3868187)">
    <path
       style="opacity:1"
       fill="#0972bc"
       d="m 24.5,101.5 c 3.0079,4.746 6.0079,9.412 9,14 1.3231,1.971 2.6565,3.971 4,6 -2.9701,5.603 -5.6367,11.27 -8,17 -0.7216,0.418 -1.2216,1.084 -1.5,2 -5.4419,-5.887 -9.6086,-12.553 -12.5,-20 0.1299,-4.368 -0.2035,-8.702 -1,-13 0.3333,-1 0.6667,-2 1,-3 0.6667,1.333 1.3333,2.667 2,4 0.3333,-0.667 0.6667,-1.333 1,-2 -1.7982,-3.064 -2.7982,-6.397 -3,-10 1.6238,0.1399 2.7904,-0.5267 3.5,-2 1.2989,0.59 2.1322,1.59 2.5,3 -1.3936,2.1457 -2.0603,4.479 -2,7 1,0 2,0 3,0 -0.2148,-1.679 0.4519,-2.679 2,-3 z"
       id="path58" />
  </g>
  <g
     id="g60"
     transform="translate(-3.557575,-6.3868187)">
    <path
       style="opacity:1"
       fill="#1575ba"
       d="m 234.5,104.5 c 0.667,0 1.333,0 2,0 0.858,7.632 1.191,15.299 1,23 0,0.667 0,1.333 0,2 -1.1,1.777 -1.934,3.777 -2.5,6 -2.619,-10.339 -2.785,-20.672 -0.5,-31 z"
       id="path60" />
  </g>
  <g
     id="g61"
     transform="translate(-3.557575,-6.3868187)">
    <path
       style="opacity:1"
       fill="#0c72ba"
       d="m 206.5,163.5 c -0.667,-5.333 -1.333,-10.667 -2,-16 -1.169,-5.667 1.164,-8.5 7,-8.5 3.542,-2.266 6.875,-4.766 10,-7.5 2.875,-2.698 5.541,-5.698 8,-9 6.193,12.537 3.86,23.037 -7,31.5 -5.228,3.443 -10.562,6.61 -16,9.5 z"
       id="path61" />
  </g>
  <g
     id="g62"
     transform="translate(-3.557575,-6.3868187)">
    <path
       style="opacity:1"
       fill="#1373b6"
       d="m 18.5,135.5 c -3.1462,-0.81 -4.8129,-2.81 -5,-6 -1,0 -2,0 -3,0 0,-1.333 0,-2.667 0,-4 -1,0 -2,0 -3,0 0.44719,5.876 2.28052,11.21 5.5,16 0.1858,2.4 0.6858,4.734 1.5,7 1.6638,3.269 3.3304,6.603 5,10 C 6.39792,144.421 2.56458,128.088 8,109.5 c 2.6582,8.986 6.1582,17.653 10.5,26 z"
       id="path62" />
  </g>
  <g
     id="g63"
     transform="translate(-3.557575,-6.3868187)">
    <path
       style="opacity:1"
       fill="#4186b7"
       d="m 236.5,141.5 c -0.667,3.667 -1.333,7.333 -2,11 -1.049,-4.329 -0.549,-8.662 1.5,-13 0.464,0.594 0.631,1.261 0.5,2 z"
       id="path63" />
  </g>
  <g
     id="g64"
     transform="translate(-3.557575,-6.3868187)">
    <path
       style="opacity:1"
       fill="#b2e8fb"
       d="m 123.5,37.5 c 0.333,0 0.667,0 1,0 0.195,2.403 1.362,4.0696 3.5,5 4.103,-1.7315 8.269,-2.8981 12.5,-3.5 -3.808,1.5473 -7.475,3.3807 -11,5.5 2.137,3.473 5.137,5.8064 9,7 1.171,0.8446 2.505,1.5113 4,2 2.329,1.778 4.996,2.778 8,3 1.419,0.9511 3.085,1.2845 5,1 -0.237,-1.291 0.096,-2.291 1,-3 0,1 0,2 0,3 4.066,0.193 8.066,-0.1403 12,-1 1.984,-0.1168 3.65,0.5499 5,2 -2.602,0.6324 -4.936,1.6324 -7,3 -2.858,0.666 -5.858,1.3326 -9,2 0.964,6.9419 1.297,13.9419 1,21 5.526,0.3214 10.86,-0.0119 16,-1 1,0 2,0 3,0 1.762,-0.1427 3.429,0.1906 5,1 1.48,-1.4885 2.313,-3.1552 2.5,-5 0.383,0.556 0.883,0.8893 1.5,1 1.109,-0.0569 2.109,-0.3902 3,-1 2.032,0.5478 3.032,1.8812 3,4 -1.16,0.765 -2.16,1.765 -3,3 2.856,6.5644 5.523,13.2311 8,20 0.865,1.083 1.865,1.249 3,0.5 1.888,-1.394 3.888,-2.56 6,-3.5 5.516,-2.843 9.183,-7.1766 11,-13 0.683,-1.6765 2.017,-2.3432 4,-2 -0.295,2.2354 0.039,4.2354 1,6 2.442,3.2241 4.109,6.891 5,11 -0.667,0.333 -1.333,0.667 -2,1 -1.567,-3.467 -3.401,-6.8001 -5.5,-10 -5.12,7.451 -11.787,13.118 -20,17 1.489,7.59 2.989,15.257 4.5,23 1.896,-0.775 3.563,-1.775 5,-3 2.667,-1.333 5.333,-2.667 8,-4 1.653,0.16 2.986,0.826 4,2 -3.125,2.734 -6.458,5.234 -10,7.5 -5.836,0 -8.169,2.833 -7,8.5 0,5.667 0,11.333 0,17 -0.538,1.617 -0.871,3.284 -1,5 -0.037,6.15 -1.037,12.15 -3,18 0.333,0.667 0.667,1.333 1,2 12.156,-4.83 21.489,-12.83 28,-24 -0.787,3.57 -2.12,6.903 -4,10 -4.013,3.653 -8.346,7.653 -13,12 -4.866,2.57 -9.7,5.237 -14.5,8 -2.458,4.579 -4.624,9.246 -6.5,14 -0.876,-0.131 -1.543,0.202 -2,1 1.006,0.896 1.006,1.562 0,2 -1.713,-0.379 -2.713,-1.379 -3,-3 1.46,-3.692 3.126,-7.359 5,-11 -0.333,-0.333 -0.667,-0.667 -1,-1 -8.204,2.09 -16.538,3.423 -25,4 -8.403,-0.634 -16.403,0.033 -24,2 -2.281,4.894 -4.281,9.894 -6,15 2.667,0 5.333,0 8,0 5.819,0.828 11.819,1.328 18,1.5 -1.882,0.198 -3.548,0.698 -5,1.5 -8.028,-0.331 -16.028,0.002 -24,1 -1.13,1.122 -1.797,2.456 -2,4 -1.667,1 -3,2.333 -4,4 -1.985,0.359 -2.651,1.192 -2,2.5 -0.916,0.278 -1.582,0.778 -2,1.5 -1.753,1.723 -3.753,3.223 -6,4.5 4.655,0.499 9.321,0.666 14,0.5 -3.149,0.665 -6.482,0.998 -10,1 -5.901,0.098 -11.567,-0.569 -17,-2 2.559,0.302 4.893,-0.032 7,-1 2.044,-0.531 3.711,-1.698 5,-3.5 -15.165,-3.061 -29.8319,-7.561 -44,-13.5 -0.3016,2.559 0.0318,4.893 1,7 0,0.667 0,1.333 0,2 -2.0439,-1.008 -4.0439,-2.008 -6,-3 0.1171,-3.69 0.1171,-7.69 0,-12 0.1159,-3.36 0.4492,-6.693 1,-10 0.0858,-0.996 -0.2476,-1.829 -1,-2.5 -14.2014,-7.033 -26.868,-16.2 -38,-27.5 -0.06,-0.543 -0.3933,-0.876 -1,-1 -0.6719,3.397 -1.5052,6.73 -2.5,10 -0.7172,-0.544 -1.2172,-1.211 -1.5,-2 -0.3783,-5.08 -1.045,-10.08 -2,-15 2.6149,-3.509 3.6149,-7.509 3,-12 0,-0.333 0,-0.667 0,-1 0.7679,-0.763 1.2679,-1.763 1.5,-3 0.3333,0.333 0.6667,0.667 1,1 0.4198,-4.452 1.2532,-8.785 2.5,-13 2.3633,-5.73 5.0299,-11.397 8,-17 -1.3435,-2.029 -2.6769,-4.029 -4,-6 1.6667,-1.333 3.3333,-1.333 5,0 1.0754,1.062 2.0754,1.062 3,0 4,-5.667 8,-11.333 12,-17 -3.4141,-4.4936 -6.5808,-9.1603 -9.5,-14 -2.9374,-5.6468 -4.7708,-11.6468 -5.5,-18 -0.1657,-4.3461 10e-4,-8.6794 0.5,-13 0.4577,2.6808 1.291,5.1808 2.5,7.5 -1.9252,3.8858 -1.2585,7.0525 2,9.5 2.9067,8.312 7.24,15.812 13,22.5 6.4669,-4.1227 12.1336,-9.456 17,-16 -4.7636,-6.5993 -8.4303,-13.766 -11,-21.5 0.6109,-2.6324 -0.3891,-4.799 -3,-6.5 1.4116,-4.764 2.9116,-9.5974 4.5,-14.5 0.4983,3.3168 0.665,6.6501 0.5,10 1.291,0.2373 2.291,-0.096 3,-1 0.891,-0.6098 1.891,-0.9431 3,-1 0.6157,0.7022 0.6157,1.7022 0,3 -2.0176,0.6746 -3.6843,1.8413 -5,3.5 1.52,5.6709 3.8533,10.8376 7,15.5 1.1634,3.5078 3.1634,6.5078 6,9 3.3514,-2.3586 6.6847,-4.6919 10,-7 1.599,-0.2678 2.9324,0.0655 4,1 -2.6662,3.4988 -5.8329,6.4988 -9.5,9 -0.6667,1 -0.6667,2 0,3 8.4848,7.5764 17.818,13.9097 28,19 4.204,-5.9022 8.037,-12.0689 11.5,-18.5 -6.821,-4.9172 -13.488,-10.0839 -20,-15.5 1.098,-0.897 1.098,-1.7303 0,-2.5 1.293,-0.49 2.627,-0.6567 4,-0.5 4.897,4.3898 10.23,8.2231 16,11.5 1.444,0.7805 2.777,0.6139 4,-0.5 3.729,-5.0674 7.062,-10.4007 10,-16 -4.217,-3.2663 -8.55,-6.2663 -13,-9 0.16,-1.6992 -0.006,-3.3659 -0.5,-5 -0.383,0.556 -0.883,0.8893 -1.5,1 -1.605,-2.8777 -2.939,-5.8777 -4,-9 -0.333,-0.6667 -0.667,-1.3333 -1,-2 0.934,-1.0676 1.268,-2.401 1,-4 1.347,-0.5283 2.681,-0.695 4,-0.5 -0.444,1.5333 -0.777,3.0333 -1,4.5 1.196,1.6446 2.196,3.3113 3,5 z"
       id="path64" />
  </g>
  <g
     id="g65"
     transform="translate(-3.557575,-6.3868187)">
    <path
       style="opacity:1"
       fill="#0972bc"
       d="m 101.5,134.5 c 9.25,3.153 18.583,6.319 28,9.5 6.302,1.159 12.636,1.992 19,2.5 -1.436,7.575 -3.103,15.075 -5,22.5 -7.813,0.306 -15.48,-0.694 -23,-3 -9.137,-2.879 -18.137,-6.045 -27,-9.5 2.1907,-7.518 4.8574,-14.851 8,-22 z"
       id="path65" />
  </g>
  <g
     id="g66"
     transform="translate(-3.557575,-6.3868187)">
    <path
       style="opacity:1"
       fill="#0972bb"
       d="m 41.5,127.5 c 13.0864,11.381 27.0864,21.548 42,30.5 -2.4415,6.608 -5.1082,13.108 -8,19.5 -15.3491,-7.841 -29.1825,-17.841 -41.5,-30 -0.6667,-1 -0.6667,-2 0,-3 2.5121,-5.688 5.0121,-11.355 7.5,-17 z"
       id="path66" />
  </g>
  <g
     id="g67"
     transform="translate(-3.557575,-6.3868187)">
    <path
       style="opacity:1"
       fill="#2177ad"
       d="m 149.5,117.5 c 1,0 2,0 3,0 -0.627,8.052 -1.627,16.052 -3,24 -1.599,0.268 -2.932,-0.066 -4,-1 1,0 2,0 3,0 1.733,-7.643 2.066,-15.31 1,-23 z"
       id="path67" />
  </g>
  <g
     id="g68"
     transform="translate(-3.557575,-6.3868187)">
    <path
       style="opacity:1"
       fill="#0371bc"
       d="m 196.5,138.5 c -12.171,1.617 -24.504,2.617 -37,3 0,-7 0,-14 0,-21 1.699,0.12 3.365,0.454 5,1 7.89,-1.537 15.89,-2.537 24,-3 0.363,-0.683 0.696,-1.35 1,-2 3.541,-1.909 5.708,-0.909 6.5,3 0.675,5.03 1.508,10.03 2.5,15 -0.085,1.833 -0.752,3.166 -2,4 z"
       id="path68" />
  </g>
  <g
     id="g69"
     transform="translate(-3.557575,-6.3868187)">
    <path
       style="opacity:1"
       fill="#1c76b3"
       d="m 100.5,99.5 c 2.842,1.587 5.508,3.42 8,5.5 -3.031,6.561 -6.197,13.061 -9.5,19.5 -1.0495,1.017 -2.2161,1.184 -3.5,0.5 -2.559,-2.103 -5.2257,-3.936 -8,-5.5 3.9632,0.162 7.6299,1.162 11,3 2.39,-6.067 4.39,-12.234 6,-18.5 -2.572,-0.432 -3.906,-1.932 -4,-4.5 z"
       id="path69" />
  </g>
  <g
     id="g70"
     transform="translate(-3.557575,-6.3868187)">
    <path
       style="opacity:1"
       fill="#1c75b0"
       d="m 189.5,116.5 c -0.304,0.65 -0.637,1.317 -1,2 -8.11,0.463 -16.11,1.463 -24,3 -1.635,-0.546 -3.301,-0.88 -5,-1 0,7 0,14 0,21 12.496,-0.383 24.829,-1.383 37,-3 -4.424,1.632 -9.091,2.798 -14,3.5 -8.66,0.5 -17.327,0.666 -26,0.5 0.139,-8.055 0.806,-16.055 2,-24 10.444,0.468 20.777,-0.198 31,-2 z"
       id="path70" />
  </g>
  <g
     id="g71"
     transform="translate(-3.557575,-6.3868187)">
    <path
       style="opacity:1"
       fill="#0972bb"
       d="m 57.5,103.5 c 11.0756,10.806 23.5756,19.806 37.5,27 -1.977,7.573 -5.3103,14.573 -10,21 -14.3938,-7.366 -27.3938,-16.7 -39,-28 -0.6667,-1 -0.6667,-2 0,-3 3.8434,-5.695 7.6767,-11.362 11.5,-17 z"
       id="path71" />
  </g>
  <g
     id="g72"
     transform="translate(-3.557575,-6.3868187)">
    <path
       style="opacity:1"
       fill="#0571bc"
       d="m 131.5,113.5 c 6.001,1.333 12.001,2.667 18,4 1.066,7.69 0.733,15.357 -1,23 -1,0 -2,0 -3,0 -11.983,-0.99 -23.316,-3.99 -34,-9 -1.061,-2.032 -2.728,-3.366 -5,-4 3.332,-5.156 5.999,-10.656 8,-16.5 5.627,0.603 11.294,1.436 17,2.5 z"
       id="path72" />
  </g>
  <g
     id="g73"
     transform="translate(-3.557575,-6.3868187)">
    <path
       style="opacity:1"
       fill="#267bb4"
       d="m 131.5,113.5 c -5.706,-1.064 -11.373,-1.897 -17,-2.5 -2.001,5.844 -4.668,11.344 -8,16.5 2.272,0.634 3.939,1.968 5,4 -3.3,-0.007 -5.3,-1.507 -6,-4.5 1.99,-6.475 4.657,-12.642 8,-18.5 1.574,-1.131 3.241,-1.298 5,-0.5 4.343,1.991 8.677,3.825 13,5.5 z"
       id="path73" />
  </g>
  <g
     id="g74"
     transform="translate(-3.557575,-6.3868187)">
    <path
       style="opacity:1"
       fill="#0271be"
       d="m 141.5,86.5 c 4.293,1.1564 8.626,2.1564 13,3 0.279,5.0947 -0.055,10.0947 -1,15 -0.961,1.765 -1.295,3.765 -1,6 -10.165,-1.874 -20.165,-4.207 -30,-7 0,-1 0,-2 0,-3 2.012,0.514 4.012,0.68 6,0.5 -0.581,-0.893 -0.915,-1.8926 -1,-3 1.681,-1.9891 3.014,-4.1558 4,-6.5 -3.011,0.3273 -5.511,1.6606 -7.5,4 -1.406,-4.7688 0.428,-7.1022 5.5,-7 0.886,-0.825 1.219,-1.825 1,-3 3.654,0.4422 7.321,0.7756 11,1 z"
       id="path74" />
  </g>
  <g
     id="g75"
     transform="translate(-3.557575,-6.3868187)">
    <path
       style="opacity:1"
       fill="#1474b6"
       d="m 190.5,100.5 c -1.595,-1.6112 -2.761,-3.6112 -3.5,-6 -2.852,2.3706 -4.686,5.3706 -5.5,9 -0.333,-1 -0.667,-2 -1,-3 1.423,-2.7746 2.089,-5.7746 2,-9 1,0 2,0 3,0 0,-1 0,-2 0,-3 -6.247,1.3915 -12.581,2.0581 -19,2 0.166,4.3461 -0.001,8.6794 -0.5,13 -0.499,-3.9862 -0.666,-7.9862 -0.5,-12 -1.624,-0.1399 -2.79,0.5267 -3.5,2 -0.302,6.0331 -0.802,12.033 -1.5,18 7.333,0 14.667,0 22,0 -1.452,0.802 -3.118,1.302 -5,1.5 -5.991,0.499 -11.991,0.666 -18,0.5 0,-8 0,-16 0,-24 9.058,0.0435 18.058,-0.6232 27,-2 1.718,4.157 3.051,8.4903 4,13 z"
       id="path75" />
  </g>
  <g
     id="g76"
     transform="translate(-3.557575,-6.3868187)">
    <path
       style="opacity:1"
       fill="#1774b7"
       d="m 141.5,86.5 c -3.679,-0.2244 -7.346,-0.5578 -11,-1 0.219,1.175 -0.114,2.175 -1,3 -5.072,-0.1022 -6.906,2.2312 -5.5,7 1.989,-2.3394 4.489,-3.6727 7.5,-4 -0.986,2.3442 -2.319,4.5109 -4,6.5 0.085,1.1074 0.419,2.107 1,3 -1.988,0.18 -3.988,0.014 -6,-0.5 0,1 0,2 0,3 9.835,2.793 19.835,5.126 30,7 -0.295,-2.235 0.039,-4.235 1,-6 0,2.333 0,4.667 0,7 -12.382,-0.85 -24.216,-3.85 -35.5,-9 1.534,-7.2516 4.367,-14.0849 8.5,-20.5 5.188,0.9307 10.188,2.4307 15,4.5 z"
       id="path76" />
  </g>
  <g
     id="g77"
     transform="translate(-3.557575,-6.3868187)">
    <path
       style="opacity:1"
       fill="#0271bd"
       d="m 190.5,100.5 c 4.034,8.106 1.368,11.772 -8,11 -7.333,0 -14.667,0 -22,0 0.698,-5.967 1.198,-11.9669 1.5,-18 0.71,-1.4733 1.876,-2.1399 3.5,-2 -0.166,4.0138 0.001,8.0138 0.5,12 0.499,-4.3206 0.666,-8.6539 0.5,-13 6.419,0.0581 12.753,-0.6085 19,-2 0,1 0,2 0,3 -1,0 -2,0 -3,0 0.089,3.2254 -0.577,6.2254 -2,9 0.333,1 0.667,2 1,3 0.814,-3.6294 2.648,-6.6294 5.5,-9 0.739,2.3888 1.905,4.3888 3.5,6 z"
       id="path77" />
  </g>
  <g
     id="g78"
     transform="translate(-3.557575,-6.3868187)">
    <path
       style="opacity:1"
       fill="#0772bb"
       d="m 100.5,99.5 c 0.094,2.568 1.428,4.068 4,4.5 -1.61,6.266 -3.61,12.433 -6,18.5 -3.3701,-1.838 -7.0368,-2.838 -11,-3 -9.1293,-4.947 -17.296,-11.28 -24.5,-19 -0.6667,-1 -0.6667,-2 0,-3 4.6335,-5.6349 9.6335,-10.9682 15,-16 6.5269,7.3304 14.0269,13.3304 22.5,18 z"
       id="path78" />
  </g>
  <g
     id="g79"
     transform="translate(-3.557575,-6.3868187)">
    <path
       style="opacity:1"
       fill="#0a72bc"
       d="m 102.5,64.5 c 6.512,5.4161 13.179,10.5828 20,15.5 -3.463,6.4311 -7.296,12.5978 -11.5,18.5 -10.182,-5.0903 -19.5152,-11.4236 -28,-19 -0.6667,-1 -0.6667,-2 0,-3 3.6671,-2.5012 6.8338,-5.5012 9.5,-9 2.5413,-1.1882 5.0413,-2.5216 7.5,-4 0.902,0.2432 1.735,0.5766 2.5,1 z"
       id="path79" />
  </g>
  <g
     id="g80"
     transform="translate(-3.557575,-6.3868187)">
    <path
       style="opacity:1"
       fill="#1374b8"
       d="m 145.5,60.5 c -1,0 -2,0 -3,0 -0.208,2.4201 0.126,4.7534 1,7 -3.48,3.1566 -3.48,6.49 0,10 -0.525,0.6924 -1.192,1.1924 -2,1.5 4.282,1.1566 8.616,1.9899 13,2.5 0,-6.6667 0,-13.3333 0,-20 0.992,7.1476 1.325,14.4809 1,22 -9.44,-0.5577 -18.106,-3.2243 -26,-8 2.899,-6.2348 6.233,-12.2348 10,-18 2.104,1.0195 4.104,2.0195 6,3 z"
       id="path80" />
  </g>
  <g
     id="g81"
     transform="translate(-3.557575,-6.3868187)">
    <path
       style="opacity:1"
       fill="#0371bc"
       d="m 145.5,60.5 c 3.018,0.2038 6.018,0.5371 9,1 0,6.6667 0,13.3333 0,20 -4.384,-0.5101 -8.718,-1.3434 -13,-2.5 0.808,-0.3076 1.475,-0.8076 2,-1.5 -3.48,-3.51 -3.48,-6.8434 0,-10 -0.874,-2.2466 -1.208,-4.5799 -1,-7 1,0 2,0 3,0 z"
       id="path81" />
  </g>
  <g
     id="g82"
     transform="translate(-3.557575,-6.3868187)">
    <path
       style="opacity:1"
       fill="#0d72ba"
       d="m 123.5,47.5 c 4.45,2.7337 8.783,5.7337 13,9 -2.938,5.5993 -6.271,10.9326 -10,16 -1.223,1.1139 -2.556,1.2805 -4,0.5 -5.77,-3.2769 -11.103,-7.1102 -16,-11.5 -1.381,-1.7741 -1.048,-3.2741 1,-4.5 5.22,-3.3931 10.553,-6.5598 16,-9.5 z"
       id="path82" />
  </g>
  <g
     id="g83"
     transform="translate(-3.557575,-6.3868187)">
    <path
       style="opacity:1"
       fill="#0a72bc"
       d="m 88.5,66.5 c -3.3153,2.3081 -6.6486,4.6414 -10,7 -2.8366,-2.4922 -4.8366,-5.4922 -6,-9 -0.5717,-4.6343 -1.9051,-8.9676 -4,-13 4.0274,0.2192 4.6941,-0.9475 2,-3.5 4.0457,-2.2751 8.379,-3.4418 13,-3.5 0,-1 0,-2 0,-3 1.2804,-1.4313 2.9471,-2.0979 5,-2 -0.0793,2.7706 0.4207,5.4373 1.5,8 2.2863,3.7363 4.4529,7.5696 6.5,11.5 -2.4981,2.6643 -5.1648,5.1643 -8,7.5 z"
       id="path83" />
  </g>
  <g
     id="g84"
     transform="translate(-3.557575,-6.3868187)">
    <path
       style="opacity:1"
       fill="#1a76b4"
       d="m 83.5,41.5 c 0,1 0,2 0,3 -4.621,0.0582 -8.9543,1.2249 -13,3.5 2.6941,2.5525 2.0274,3.7192 -2,3.5 2.0949,4.0324 3.4283,8.3657 4,13 -3.1467,-4.6624 -5.48,-9.8291 -7,-15.5 1.3157,-1.6587 2.9824,-2.8254 5,-3.5 4.2581,-1.632 8.5914,-2.9653 13,-4 z"
       id="path84" />
  </g>
  <g
     id="g85"
     transform="translate(-3.557575,-6.3868187)">
    <path
       style="opacity:1"
       fill="#0f73ba"
       d="m 117.5,34.5 c 1.061,3.1223 2.395,6.1223 4,9 0.111,0.6174 0.444,1.1174 1,1.5 -5.558,3.0599 -11.225,5.8933 -17,8.5 -5.7278,-1.7103 -8.8945,-5.7103 -9.5,-12 -0.7083,-0.8805 -1.5416,-1.5472 -2.5,-2 1.3952,-1.8794 3.3952,-2.8794 6,-3 5.9,-1.4568 11.9,-2.1234 18,-2 z"
       id="path85" />
  </g>
  <g
     id="g86"
     transform="translate(-3.557575,-6.3868187)">
    <path
       style="opacity:1"
       fill="#2179b1"
       d="m 93.5,39.5 c 0.9584,0.4528 1.7917,1.1195 2.5,2 0.6055,6.2897 3.7722,10.2897 9.5,12 -2.338,2.6391 -4.505,2.3058 -6.5,-1 -2.3972,-4.124 -4.2306,-8.4573 -5.5,-13 z"
       id="path86" />
  </g>
  <g
     id="g87"
     transform="translate(-3.557575,-6.3868187)">
    <path
       style="opacity:1"
       fill="#0271be"
       d="m 18.5,135.5 c 1.4063,0.473 2.073,1.473 2,3 3.3789,6.677 3.8789,13.677 1.5,21 -0.6708,-0.752 -1.5041,-1.086 -2.5,-1 -1.6696,-3.397 -3.3362,-6.731 -5,-10 -0.8142,-2.266 -1.3142,-4.6 -1.5,-7 -3.21948,-4.79 -5.05281,-10.124 -5.5,-16 1,0 2,0 3,0 0,1.333 0,2.667 0,4 1,0 2,0 3,0 0.1871,3.19 1.8538,5.19 5,6 z"
       id="path87" />
  </g>
  <g
     id="g88"
     transform="translate(-3.557575,-6.3868187)">
    <path
       style="opacity:1"
       fill="#1d77b1"
       d="m 20.5,138.5 c 2.8263,1.809 4.8263,4.309 6,7.5 -1.3713,2.319 -2.0379,4.819 -2,7.5 0,0.333 0,0.667 0,1 -0.7239,2.583 -1.5572,5.249 -2.5,8 -1.4813,-0.971 -2.3146,-2.304 -2.5,-4 0.9959,-0.086 1.8292,0.248 2.5,1 2.3789,-7.323 1.8789,-14.323 -1.5,-21 z"
       id="path88" />
  </g>
  <g
     id="g89"
     transform="translate(-3.557575,-6.3868187)">
    <path
       style="opacity:1"
       fill="#1074b9"
       d="m 197.5,166.5 c 0.351,-5.762 -0.149,-11.428 -1.5,-17 -2.283,2.138 -5.117,3.138 -8.5,3 -10.318,-0.805 -20.652,-1.138 -31,-1 -0.744,6.443 -1.744,12.776 -3,19 6.333,0 12.667,0 19,0 -6.813,0.991 -13.813,1.325 -21,1 1.109,-7.652 2.109,-15.319 3,-23 9.006,0.166 18.006,0 27,-0.5 5.986,-1.307 11.986,-2.474 18,-3.5 0.63,7.743 -0.037,15.076 -2,22 z"
       id="path89" />
  </g>
  <g
     id="g90"
     transform="translate(-3.557575,-6.3868187)">
    <path
       style="opacity:1"
       fill="#a8e1f8"
       d="m 233.5,93.5 c 1.174,1.0137 1.84,2.347 2,4 -0.968,2.1074 -1.302,4.441 -1,7 -2.285,10.328 -2.119,20.661 0.5,31 0.566,-2.223 1.4,-4.223 2.5,-6 0.317,4.202 -0.017,8.202 -1,12 0.131,-0.739 -0.036,-1.406 -0.5,-2 -2.049,4.338 -2.549,8.671 -1.5,13 -0.87,4.724 -2.537,9.057 -5,13 0.966,-5.316 1.466,-10.649 1.5,-16 -7.059,9.558 -16.225,16.224 -27.5,20 0.129,-1.716 0.462,-3.383 1,-5 0.992,0.172 1.658,-0.162 2,-1 5.438,-2.89 10.772,-6.057 16,-9.5 10.86,-8.463 13.193,-18.963 7,-31.5 -2.459,3.302 -5.125,6.302 -8,9 -1.014,-1.174 -2.347,-1.84 -4,-2 3.402,-3.395 6.402,-7.062 9,-11 1.195,-0.366 1.861,-1.199 2,-2.5 -1.107,-3.154 -2.107,-6.32 -3,-9.5 0.667,-0.333 1.333,-0.667 2,-1 1.18,1.514 2.18,3.181 3,5 1.45,-1.35 2.117,-3.016 2,-5 0.983,-3.798 1.317,-7.7984 1,-12 z"
       id="path90" />
  </g>
  <g
     id="g91"
     transform="translate(-3.557575,-6.3868187)">
    <path
       style="opacity:1"
       fill="#0170bc"
       d="m 197.5,166.5 c -8.083,2.632 -16.417,3.965 -25,4 -6.333,0 -12.667,0 -19,0 1.256,-6.224 2.256,-12.557 3,-19 10.348,-0.138 20.682,0.195 31,1 3.383,0.138 6.217,-0.862 8.5,-3 1.351,5.572 1.851,11.238 1.5,17 z"
       id="path91" />
  </g>
  <g
     id="g92"
     transform="translate(-3.557575,-6.3868187)">
    <path
       style="opacity:1"
       fill="#5faedc"
       d="m 204.5,147.5 c 0.667,5.333 1.333,10.667 2,16 -0.342,0.838 -1.008,1.172 -2,1 0,-5.667 0,-11.333 0,-17 z"
       id="path92" />
  </g>
  <g
     id="g93"
     transform="translate(-3.557575,-6.3868187)">
    <path
       style="opacity:1"
       fill="#4ea5dd"
       d="m 29.5,158.5 c -0.4422,3.654 -0.7756,7.321 -1,11 -1.274,-3.765 -0.9407,-7.431 1,-11 z"
       id="path93" />
  </g>
  <g
     id="g94"
     transform="translate(-3.557575,-6.3868187)">
    <path
       style="opacity:1"
       fill="#0571bc"
       d="m 94.5,162.5 c 11.385,4.524 23.052,8.19 35,11 -0.963,0.863 -0.963,1.53 0,2 3.547,-0.28 7.213,-0.28 11,0 -1.262,6.118 -2.929,12.118 -5,18 -3.607,0.989 -7.274,1.323 -11,1 -4.946,-1.319 -9.946,-2.486 -15,-3.5 -2.976,-0.705 -5.642,-1.871 -8,-3.5 -4.1323,-2.846 -8.6323,-5.18 -13.5,-7 0.1865,-5.76 1.1865,-11.427 3,-17 1.0113,-0.837 2.1779,-1.17 3.5,-1 z"
       id="path94" />
  </g>
  <g
     id="g95"
     transform="translate(-3.557575,-6.3868187)">
    <path
       style="opacity:1"
       fill="#0d73ba"
       d="m 229.5,165.5 c -6.511,11.17 -15.844,19.17 -28,24 -0.333,-0.667 -0.667,-1.333 -1,-2 1.963,-5.85 2.963,-11.85 3,-18 11.275,-3.776 20.441,-10.442 27.5,-20 -0.034,5.351 -0.534,10.684 -1.5,16 z"
       id="path95" />
  </g>
  <g
     id="g96"
     transform="translate(-3.557575,-6.3868187)">
    <path
       style="opacity:1"
       fill="#1875b9"
       d="m 5.5,139.5 c 4.0469,9.76 9.3802,18.76 16,27 0.955,4.92 1.6217,9.92 2,15 -4.5082,-5.689 -8.5082,-11.689 -12,-18 -3.02814,-7.75 -5.02814,-15.75 -6,-24 z"
       id="path96" />
  </g>
  <g
     id="g97"
     transform="translate(-3.557575,-6.3868187)">
    <path
       style="opacity:1"
       fill="#3f88b8"
       d="m 196.5,181.5 c 0,-2.667 0,-5.333 0,-8 -1,0 -2,0 -3,0 1.141,-0.839 2.474,-1.506 4,-2 0.333,0.5 0.667,1 1,1.5 -0.535,2.996 -1.202,5.829 -2,8.5 z"
       id="path97" />
  </g>
  <g
     id="g98"
     transform="translate(-3.557575,-6.3868187)">
    <path
       style="opacity:1"
       fill="#0971be"
       d="m 30.5,154.5 c 1,0 2,0 3,0 -0.2229,2.614 0.9438,4.281 3.5,5 0.7203,1.612 0.5536,3.112 -0.5,4.5 4.7051,1.823 4.8718,3.656 0.5,5.5 -0.6378,3.43 0.8622,4.763 4.5,4 -0.2725,-2.458 0.7275,-4.125 3,-5 10.7187,3.145 10.3854,4.978 -1,5.5 -1.8249,1.466 -2.3249,3.299 -1.5,5.5 4.1022,-1.633 8.4355,-2.633 13,-3 0.262,2.756 -1.0713,4.422 -4,5 -1.8122,0.007 -3.3122,-0.66 -4.5,-2 -1.3415,1.505 -3.0082,2.172 -5,2 -4.9601,-3.292 -9.2934,-7.292 -13,-12 0.2244,-3.679 0.5578,-7.346 1,-11 0.3333,-1.333 0.6667,-2.667 1,-4 z"
       id="path98" />
  </g>
  <g
     id="g99"
     transform="translate(-3.557575,-6.3868187)">
    <path
       style="opacity:1"
       fill="#0571bc"
       d="m 193.5,173.5 c 1,0 2,0 3,0 0,2.667 0,5.333 0,8 0.261,8.322 -3.739,12.822 -12,13.5 -5.308,0.83 -10.641,1.33 -16,1.5 -5,0 -10,0 -15,0 0,-1.667 0,-3.333 0,-5 -1,0 -2,0 -3,0 0,1.667 0,3.333 0,5 -1.333,0 -2.667,0 -4,0 1.007,-5.341 2.007,-10.675 3,-16 0,-1.333 0,-2.667 0,-4 14.808,0.576 29.475,-0.424 44,-3 z"
       id="path99" />
  </g>
  <g
     id="g100"
     transform="translate(-3.557575,-6.3868187)">
    <path
       style="opacity:1"
       fill="#0c72b9"
       d="m 41.5,181.5 c 1.9918,0.172 3.6585,-0.495 5,-2 1.1878,1.34 2.6878,2.007 4.5,2 2.9287,-0.578 4.262,-2.244 4,-5 -4.5645,0.367 -8.8978,1.367 -13,3 -0.8249,-2.201 -0.3249,-4.034 1.5,-5.5 11.3854,-0.522 11.7187,-2.355 1,-5.5 -2.2725,0.875 -3.2725,2.542 -3,5 -3.6378,0.763 -5.1378,-0.57 -4.5,-4 4.3718,-1.844 4.2051,-3.677 -0.5,-5.5 1.0536,-1.388 1.2203,-2.888 0.5,-4.5 -2.5562,-0.719 -3.7229,-2.386 -3.5,-5 -1,0 -2,0 -3,0 -0.0386,-1.256 0.4614,-2.256 1.5,-3 12.6249,12.46 26.7915,22.793 42.5,31 -1.3894,5.761 -3.556,11.094 -6.5,16 -9.5344,-4.726 -18.3677,-10.392 -26.5,-17 z"
       id="path100" />
  </g>
  <g
     id="g101"
     transform="translate(-3.557575,-6.3868187)">
    <path
       style="opacity:1"
       fill="#2077b4"
       d="m 94.5,162.5 c -1.3221,-0.17 -2.4887,0.163 -3.5,1 -1.8135,5.573 -2.8135,11.24 -3,17 4.8677,1.82 9.3677,4.154 13.5,7 -4.9633,-1.473 -9.9633,-2.973 -15,-4.5 -1.4904,-0.745 -2.4904,-1.912 -3,-3.5 2.2724,-6.479 4.939,-12.813 8,-19 1.2387,0.442 2.2387,1.109 3,2 z"
       id="path101" />
  </g>
  <g
     id="g102"
     transform="translate(-3.557575,-6.3868187)">
    <path
       style="opacity:1"
       fill="#5490bc"
       d="m 18.5,178.5 c 1.933,2.437 4.0997,4.771 6.5,7 0.49,1.293 0.6567,2.627 0.5,4 -3.0792,-3.15 -5.4125,-6.817 -7,-11 z"
       id="path102" />
  </g>
  <g
     id="g103"
     transform="translate(-3.557575,-6.3868187)">
    <path
       style="opacity:1"
       fill="#2a78b3"
       d="m 225.5,175.5 c -3.774,7.884 -8.774,14.884 -15,21 0,-1.333 0,-2.667 0,-4 3,-0.333 4.667,-2 5,-5 -1,0 -2,0 -3,0 4.654,-4.347 8.987,-8.347 13,-12 z"
       id="path103" />
  </g>
  <g
     id="g104"
     transform="translate(-3.557575,-6.3868187)">
    <path
       style="opacity:1"
       fill="#2d7eb8"
       d="m 129.5,173.5 c 4,0.333 8,0.667 12,1 -1.039,7.125 -2.706,14.125 -5,21 -4.181,0.964 -8.181,0.631 -12,-1 3.726,0.323 7.393,-0.011 11,-1 2.071,-5.882 3.738,-11.882 5,-18 -3.787,-0.28 -7.453,-0.28 -11,0 -0.963,-0.47 -0.963,-1.137 0,-2 z"
       id="path104" />
  </g>
  <g
     id="g105"
     transform="translate(-3.557575,-6.3868187)">
    <path
       style="opacity:1"
       fill="#0e72ba"
       d="m 28.5,174.5 c 11.132,11.3 23.7986,20.467 38,27.5 0.7524,0.671 1.0858,1.504 1,2.5 -2.1928,2.022 -3.1928,4.689 -3,8 -1,0 -2,0 -3,0 -12.0813,-6.239 -22.9147,-14.239 -32.5,-24 -1.7334,-4.732 -1.9,-9.399 -0.5,-14 z"
       id="path105" />
  </g>
  <g
     id="g106"
     transform="translate(-3.557575,-6.3868187)">
    <path
       style="opacity:1"
       fill="#1172bb"
       d="m 212.5,187.5 c 1,0 2,0 3,0 -0.333,3 -2,4.667 -5,5 0,1.333 0,2.667 0,4 -0.057,1.109 -0.39,2.109 -1,3 -3.609,2.48 -7.276,4.98 -11,7.5 -2.15,1.411 -4.484,2.245 -7,2.5 1.876,-4.754 4.042,-9.421 6.5,-14 4.8,-2.763 9.634,-5.43 14.5,-8 z"
       id="path106" />
  </g>
  <g
     id="g107"
     transform="translate(-3.557575,-6.3868187)">
    <path
       style="opacity:1"
       fill="#1672aa"
       d="m 149.5,180.5 c -0.993,5.325 -1.993,10.659 -3,16 1.333,0 2.667,0 4,0 0,-1.667 0,-3.333 0,-5 1,0 2,0 3,0 0,1.667 0,3.333 0,5 5,0 10,0 15,0 -7.816,0.992 -15.816,1.326 -24,1 0.688,-6.053 2.355,-11.72 5,-17 z"
       id="path107" />
  </g>
  <g
     id="g108"
     transform="translate(-3.557575,-6.3868187)">
    <path
       style="opacity:1"
       fill="#0972bb"
       d="m 128.5,215.5 c -2.217,0.869 -4.55,1.202 -7,1 -2.706,-0.075 -5.373,-0.408 -8,-1 -12.09,-3.363 -24.0899,-7.363 -36,-12 -0.3333,-0.667 -0.6667,-1.333 -1,-2 1.0675,-4.455 2.4009,-8.788 4,-13 0.4867,-0.973 0.9867,-1.973 1.5,-3 16.6499,7.815 34.15,13.148 52.5,16 -2.566,4.461 -4.566,9.127 -6,14 z"
       id="path108" />
  </g>
  <g
     id="g109"
     transform="translate(-3.557575,-6.3868187)">
    <path
       style="opacity:1"
       fill="#72bee9"
       d="m 165.5,201.5 c -7.901,0.695 -15.901,1.362 -24,2 7.597,-1.967 15.597,-2.634 24,-2 z"
       id="path109" />
  </g>
  <g
     id="g110"
     transform="translate(-3.557575,-6.3868187)">
    <path
       style="opacity:1"
       fill="#0872bb"
       d="m 186.5,209.5 c -1.546,2.7 -3.879,4.533 -7,5.5 -11.869,2.522 -23.869,3.689 -36,3.5 -2.667,0 -5.333,0 -8,0 1.719,-5.106 3.719,-10.106 6,-15 8.099,-0.638 16.099,-1.305 24,-2 8.462,-0.577 16.796,-1.91 25,-4 0.333,0.333 0.667,0.667 1,1 -1.874,3.641 -3.54,7.308 -5,11 z"
       id="path110" />
  </g>
  <g
     id="g111"
     transform="translate(-3.557575,-6.3868187)">
    <path
       style="opacity:1"
       fill="#a6e2fa"
       d="m 80.5,188.5 c -1.5991,4.212 -2.9325,8.545 -4,13 0.3333,0.667 0.6667,1.333 1,2 11.9101,4.637 23.91,8.637 36,12 0.418,0.722 1.084,1.222 2,1.5 -0.556,0.383 -0.889,0.883 -1,1.5 -13.275,-2.427 -26.1082,-6.427 -38.5,-12 -0.3826,0.556 -0.8826,0.889 -1.5,1 -0.5989,-6.353 0.5678,-12.353 3.5,-18 0.6708,-0.752 1.5041,-1.086 2.5,-1 z"
       id="path111" />
  </g>
  <g
     id="g112"
     transform="translate(-3.557575,-6.3868187)">
    <path
       style="opacity:1"
       fill="#1a75b7"
       d="m 114.5,218.5 c 3.822,0.469 7.489,1.469 11,3 -2,3 -4,6 -6,9 -2.136,1.293 -4.136,1.293 -6,0 1.667,0 3.333,0 5,0 0.28,-2.888 -1.053,-4.388 -4,-4.5 1.74,-1.827 3.407,-1.66 5,0.5 1.821,-1.228 2.821,-2.894 3,-5 -5.99,-0.999 -11.99,-1.166 -18,-0.5 -0.837,-1.011 -1.17,-2.178 -1,-3.5 -6.3392,-1.964 -12.6725,-3.464 -19,-4.5 1.1956,0.654 1.1956,1.154 0,1.5 -1.2493,-1.975 -2.7493,-2.309 -4.5,-1 -3.6297,-2.726 -4.963,-1.726 -4,3 1.713,1.576 3.213,3.243 4.5,5 -3.3573,-0.673 -6.024,-2.339 -8,-5 0.67,-3.019 1.3366,-6.019 2,-9 0.6174,-0.111 1.1174,-0.444 1.5,-1 12.3918,5.573 25.225,9.573 38.5,12 z"
       id="path112" />
  </g>
  <g
     id="g113"
     transform="translate(-3.557575,-6.3868187)">
    <path
       style="opacity:1"
       fill="#297cb1"
       d="m 67.5,204.5 c -0.5508,3.307 -0.8841,6.64 -1,10 -1.903,-0.296 -3.5697,-0.963 -5,-2 1,0 2,0 3,0 -0.1928,-3.311 0.8072,-5.978 3,-8 z"
       id="path113" />
  </g>
  <g
     id="g114"
     transform="translate(-3.557575,-6.3868187)">
    <path
       style="opacity:1"
       fill="#96d5f2"
       d="m 11.5,163.5 c 3.4918,6.311 7.4918,12.311 12,18 0.2828,0.789 0.7828,1.456 1.5,2 0.9948,-3.27 1.8281,-6.603 2.5,-10 0.6067,0.124 0.94,0.457 1,1 -1.4,4.601 -1.2334,9.268 0.5,14 9.5853,9.761 20.4187,17.761 32.5,24 1.4303,1.037 3.097,1.704 5,2 0.1171,4.31 0.1171,8.31 0,12 -7.5402,-3.56 -14.2068,-8.226 -20,-14 5.9721,3.656 11.9721,7.322 18,11 1.141,-1.921 1.3077,-3.921 0.5,-6 -11.3352,-6.336 -21.8352,-13.836 -31.5,-22.5 -0.8317,-0.688 -1.4984,-0.521 -2,0.5 0.6272,0.917 0.9606,1.917 1,3 -3.4415,-2.112 -5.7748,-5.112 -7,-9 0.1567,-1.373 -0.01,-2.707 -0.5,-4 -2.4003,-2.229 -4.567,-4.563 -6.5,-7 -3.6443,-4.293 -5.9776,-9.293 -7,-15 z"
       id="path114" />
  </g>
  <g
     id="g115"
     transform="translate(-3.557575,-6.3868187)">
    <path
       style="opacity:1"
       fill="#1875b6"
       d="m 46.5,212.5 c -5.694,-3.694 -10.3607,-8.361 -14,-14 -0.0394,-1.083 -0.3728,-2.083 -1,-3 0.5016,-1.021 1.1683,-1.188 2,-0.5 9.6648,8.664 20.1648,16.164 31.5,22.5 0.8077,2.079 0.641,4.079 -0.5,6 -6.0279,-3.678 -12.0279,-7.344 -18,-11 z"
       id="path115" />
  </g>
  <g
     id="g116"
     transform="translate(-3.557575,-6.3868187)">
    <path
       style="opacity:1"
       fill="#65aed8"
       d="m 128.5,215.5 c -0.652,1.225 -1.819,1.892 -3.5,2 -1.385,-0.014 -2.551,-0.348 -3.5,-1 2.45,0.202 4.783,-0.131 7,-1 z"
       id="path116" />
  </g>
  <g
     id="g117"
     transform="translate(-3.557575,-6.3868187)">
    <path
       style="opacity:1"
       fill="#317bb2"
       d="m 201.5,207.5 c -5.943,5.971 -12.609,10.971 -20,15 -0.438,0.065 -0.772,-0.101 -1,-0.5 2.374,-2.039 4.374,-4.372 6,-7 5.136,-2.322 10.136,-4.822 15,-7.5 z"
       id="path117" />
  </g>
  <g
     id="g118"
     transform="translate(-3.557575,-6.3868187)">
    <path
       style="opacity:1"
       fill="#0270bd"
       d="m 113.5,230.5 c -5.56,-3.166 -11.56,-5.5 -18,-7 1.3793,-1.363 1.2126,-2.363 -0.5,-3 -1.6803,1.047 -3.5136,1.713 -5.5,2 -2.6764,-0.337 -5.343,-0.67 -8,-1 -0.3333,0 -0.6667,0 -1,0 -1.287,-1.757 -2.787,-3.424 -4.5,-5 -0.963,-4.726 0.3703,-5.726 4,-3 1.7507,-1.309 3.2507,-0.975 4.5,1 1.1956,-0.346 1.1956,-0.846 0,-1.5 6.3275,1.036 12.6608,2.536 19,4.5 -0.17,1.322 0.163,2.489 1,3.5 6.01,-0.666 12.01,-0.499 18,0.5 -0.179,2.106 -1.179,3.772 -3,5 -1.593,-2.16 -3.26,-2.327 -5,-0.5 2.947,0.112 4.28,1.612 4,4.5 -1.667,0 -3.333,0 -5,0 z"
       id="path118" />
  </g>
  <g
     id="g119"
     transform="translate(-3.557575,-6.3868187)">
    <path
       style="opacity:1"
       fill="#9eddf7"
       d="m 209.5,199.5 c -2.409,3.075 -5.075,5.742 -8,8 -4.864,2.678 -9.864,5.178 -15,7.5 -1.626,2.628 -3.626,4.961 -6,7 0.228,0.399 0.562,0.565 1,0.5 -3.085,1.857 -6.085,3.857 -9,6 -3.355,1.346 -6.688,2.68 -10,4 -0.417,-0.624 -1.084,-0.957 -2,-1 -4.772,1.168 -9.438,2.168 -14,3 -8,0 -16,0 -24,0 0.418,-0.722 1.084,-1.222 2,-1.5 -0.651,-1.308 0.015,-2.141 2,-2.5 14.036,3.158 28.036,2.158 42,-3 4.069,-1.799 7.569,-4.466 10.5,-8 0.591,-0.983 0.257,-1.65 -1,-2 -6.969,2.4 -14.135,3.734 -21.5,4 1.452,-0.802 3.118,-1.302 5,-1.5 -6.181,-0.172 -12.181,-0.672 -18,-1.5 12.131,0.189 24.131,-0.978 36,-3.5 3.121,-0.967 5.454,-2.8 7,-5.5 0.287,1.621 1.287,2.621 3,3 1.006,-0.438 1.006,-1.104 0,-2 0.457,-0.798 1.124,-1.131 2,-1 2.516,-0.255 4.85,-1.089 7,-2.5 3.724,-2.52 7.391,-5.02 11,-7.5 z"
       id="path119" />
  </g>
  <g
     id="g120"
     transform="translate(-3.557575,-6.3868187)">
    <path
       style="opacity:1"
       fill="#287db8"
       d="m 168.5,227.5 c 0,-1 0,-2 0,-3 1.859,0.039 3.192,-0.794 4,-2.5 -12.309,0.203 -24.642,0.537 -37,1 0.333,0.333 0.667,0.667 1,1 -2.311,0.236 -4.311,1.069 -6,2.5 0.203,-1.544 0.87,-2.878 2,-4 7.972,-0.998 15.972,-1.331 24,-1 7.365,-0.266 14.531,-1.6 21.5,-4 1.257,0.35 1.591,1.017 1,2 -2.931,3.534 -6.431,6.201 -10.5,8 z"
       id="path120" />
  </g>
  <g
     id="g121"
     transform="translate(-3.557575,-6.3868187)">
    <path
       style="opacity:1"
       fill="#1e78b5"
       d="m 113.5,230.5 c -11.234,-1.417 -21.9007,-4.417 -32,-9 2.657,0.33 5.3236,0.663 8,1 1.9864,-0.287 3.8197,-0.953 5.5,-2 1.7126,0.637 1.8793,1.637 0.5,3 6.44,1.5 12.44,3.834 18,7 z"
       id="path121" />
  </g>
  <g
     id="g122"
     transform="translate(-3.557575,-6.3868187)">
    <path
       style="opacity:1"
       fill="#0a72bb"
       d="m 168.5,227.5 c -13.964,5.158 -27.964,6.158 -42,3 1,-1.667 2.333,-3 4,-4 1.689,-1.431 3.689,-2.264 6,-2.5 -0.333,-0.333 -0.667,-0.667 -1,-1 12.358,-0.463 24.691,-0.797 37,-1 -0.808,1.706 -2.141,2.539 -4,2.5 0,1 0,2 0,3 z"
       id="path122" />
  </g>
  <g
     id="g123"
     transform="translate(-3.557575,-6.3868187)">
    <path
       style="opacity:1"
       fill="#0d73ba"
       d="m 110.5,237.5 c -13.1553,-1.497 -25.8219,-4.83 -38,-10 -0.9682,-2.107 -1.3016,-4.441 -1,-7 14.1681,5.939 28.835,10.439 44,13.5 -1.289,1.802 -2.956,2.969 -5,3.5 z"
       id="path123" />
  </g>
  <g
     id="g124"
     transform="translate(-3.557575,-6.3868187)">
    <path
       style="opacity:1"
       fill="#73b4dc"
       d="m 72.5,227.5 c 12.1781,5.17 24.8447,8.503 38,10 -2.107,0.968 -4.441,1.302 -7,1 -5.0397,-0.791 -10.0397,-1.791 -15,-3 -5.4989,-1.702 -10.8322,-3.702 -16,-6 0,-0.667 0,-1.333 0,-2 z"
       id="path124" />
  </g>
  <g
     id="g125"
     transform="translate(-3.557575,-6.3868187)">
    <path
       style="opacity:1"
       fill="#3b82b7"
       d="m 162.5,232.5 c -3.074,0.802 -6.074,1.802 -9,3 -2.827,0.084 -5.494,0.75 -8,2 0.61,-0.891 0.943,-1.891 1,-3 4.562,-0.832 9.228,-1.832 14,-3 0.916,0.043 1.583,0.376 2,1 z"
       id="path125" />
  </g>
  <g
     id="g126"
     transform="translate(-3.557575,-6.3868187)">
    <path
       style="opacity:1"
       fill="#2279bb"
       d="m 122.5,234.5 c 8,0 16,0 24,0 -0.057,1.109 -0.39,2.109 -1,3 -2.357,-0.163 -4.69,0.003 -7,0.5 -0.556,0.383 -0.889,0.883 -1,1.5 -2.333,0 -4.667,0 -7,0 -4.679,0.166 -9.345,-0.001 -14,-0.5 2.247,-1.277 4.247,-2.777 6,-4.5 z"
       id="path126" />
  </g>
  <g
     id="g127"
     transform="translate(-3.557575,-6.3868187)">
    <path
       style="opacity:1"
       fill="#c9e8f4"
       d="m 153.5,235.5 c -4.791,2.812 -10.124,4.145 -16,4 0.111,-0.617 0.444,-1.117 1,-1.5 2.31,-0.497 4.643,-0.663 7,-0.5 2.506,-1.25 5.173,-1.916 8,-2 z"
       id="path127" />
  </g>
</svg>
